<?xml version="1.0" encoding="UTF-8" standalone="no"?>
<!-- Created with Inkscape (http://www.inkscape.org/) -->

<svg
   width="8.8149633mm"
   height="9.3793898mm"
   viewBox="0 0 8.8149633 9.3793898"
   version="1.1"
   id="svg65112"
   inkscape:version="1.2.2 (732a01da63, 2022-12-09, custom)"
   sodipodi:docname="fourthleaf.svg"
   xmlns:inkscape="http://www.inkscape.org/namespaces/inkscape"
   xmlns:sodipodi="http://sodipodi.sourceforge.net/DTD/sodipodi-0.dtd"
   xmlns:xlink="http://www.w3.org/1999/xlink"
   xmlns="http://www.w3.org/2000/svg"
   xmlns:svg="http://www.w3.org/2000/svg">
  <sodipodi:namedview
     id="namedview65114"
     pagecolor="#ffffff"
     bordercolor="#111111"
     borderopacity="1"
     inkscape:showpageshadow="0"
     inkscape:pageopacity="0"
     inkscape:pagecheckerboard="1"
     inkscape:deskcolor="#d1d1d1"
     inkscape:document-units="mm"
     showgrid="false"
     inkscape:zoom="0.5095679"
     inkscape:cx="65.741975"
     inkscape:cy="334.59721"
     inkscape:window-width="1536"
     inkscape:window-height="800"
     inkscape:window-x="0"
     inkscape:window-y="0"
     inkscape:window-maximized="1"
     inkscape:current-layer="layer1" />
  <defs
     id="defs65109">
    <linearGradient
       inkscape:collect="always"
       xlink:href="#linearGradient1079"
       id="linearGradient8791"
       gradientUnits="userSpaceOnUse"
       gradientTransform="matrix(0.021066,0,0,-0.01609181,86.64518,69.8169)"
       x1="122.59455"
       y1="578.54382"
       x2="439.49298"
       y2="25.429077" />
    <linearGradient
       inkscape:collect="always"
       id="linearGradient1079">
      <stop
         style="stop-color:#011200;stop-opacity:1;"
         offset="0"
         id="stop1073" />
      <stop
         style="stop-color:#022800;stop-opacity:1;"
         offset="0.66122651"
         id="stop1075" />
      <stop
         style="stop-color:#000000;stop-opacity:0;"
         offset="1"
         id="stop1077" />
    </linearGradient>
  </defs>
  <g
     inkscape:label="Capa 1"
     inkscape:groupmode="layer"
     id="layer1"
     transform="translate(-88.40299,-60.41835)">
    <path
       style="fill:url(#linearGradient8791);fill-opacity:1;stroke-width:0.021042"
       d="m 89.12502,60.4331 8e-5,0.0138 0.049,0.19282 0.049,0.19281 0.0473,0.14146 0.0472,0.14147 0.0822,0.19904 0.0822,0.19906 0.0837,0.16649 0.0837,0.16651 0.12555,0.19211 0.12553,0.19212 0.13312,0.15371 0.13311,0.15373 0.14608,0.11927 0.14605,0.11928 0.27792,0.15918 0.2779,0.15919 0.21677,0.13671 0.21678,0.13671 0.3703,0.27708 0.37028,0.27708 0.26907,0.23907 0.26906,0.23909 0.22026,0.22342 0.22024,0.22343 0.20334,0.23634 0.20332,0.23633 0.19893,0.26564 0.19891,0.26564 0.21066,0.33206 0.210643,0.33205 0.15647,0.30346 0.15646,0.30344 0.10062,0.24505 0.10062,0.24506 -0.01,0.007 -0.01,0.007 -0.0559,-0.13291 -0.0559,-0.13292 -0.10762,-0.19309 -0.10762,-0.19319 -0.20073,-0.30344 -0.200743,-0.30344 -0.19669,-0.24827 -0.19666,-0.24828 -0.15837,-0.17472 -0.15836,-0.1747 -0.18014,-0.18391 -0.18013,-0.18391 -0.28051,-0.25746 -0.28051,-0.25747 -0.39549,-0.31089 -0.39552,-0.31088 -0.37315,-0.25119 -0.37319,-0.25118 -0.24303,-0.14597 -0.243,-0.14597 -0.25763,-0.15453 -0.25761,-0.15452 -0.17597,-0.14892 -0.176,-0.14892 -0.14193,-0.14712 -0.14196,-0.14713 -0.0722,-0.0873 -0.0722,-0.0873 -0.0169,-4e-5 -0.0169,-3e-5 -0.10006,0.12862 -0.10007,0.12862 -0.0966,0.17023 -0.0966,0.17023 -0.1035,0.24165 -0.10351,0.24166 -0.0518,0.18133 -0.0518,0.18133 -0.034,0.1931 -0.0339,0.19311 v 0.3166 0.31661 l 0.0376,0.20628 0.0376,0.20629 0.069,0.20354 0.069,0.20353 0.0866,0.17301 0.0866,0.17302 0.12092,0.1845 0.12092,0.18451 0.15746,0.18356 0.15744,0.18356 0.18747,0.17616 0.18746,0.17615 0.28586,0.21255 0.28588,0.21255 0.23207,0.14068 0.2321,0.14067 0.29757,0.15422 0.29757,0.15423 0.22872,0.10112 0.22872,0.10114 0.27686,0.11171 0.27686,0.11171 0.35955,0.12271 0.35955,0.12273 0.43494,0.12762 0.43494,0.12761 0.2735,0.10409 0.273533,0.10409 0.24133,0.11726 0.24132,0.11726 0.26762,0.1544 0.26762,0.1544 0.18056,0.12021 0.18057,0.12021 0.0165,7e-5 0.0165,9e-5 0.13829,-0.17931 0.1383,-0.17931 0.18575,-0.29425 0.18572,-0.29425 0.12119,-0.24827 0.1212,-0.24828 0.0961,-0.26008 0.0961,-0.26006 0.0611,-0.22728 0.0611,-0.22728 0.0392,-0.21149 0.0392,-0.2115 0.0117,-0.47815 0.0117,-0.47816 -0.0494,-0.31264 -0.0494,-0.31264 -0.0606,-0.17695 -0.0605,-0.17694 -0.0863,-0.19087 -0.0863,-0.19086 -0.17497,-0.27587 -0.17495,-0.27585 -0.13915,-0.17471 -0.13912,-0.17471 -0.20508,-0.20887 -0.20511,-0.20887 -0.21935,-0.17533 -0.21936,-0.17534 -0.20887,-0.13543 -0.20889,-0.13542 -0.26699,-0.13783 -0.26698,-0.13782 -0.342713,-0.12806 -0.34269,-0.12805 -0.28054,-0.0729 -0.28051,-0.0729 -0.27794,-0.0477 -0.27795,-0.0476 -0.24806,-0.0274 -0.24807,-0.0274 -0.43335,-0.0117 -0.43335,-0.0117 -0.369,0.0226 -0.36898,0.0226 -0.0334,-0.0338 -0.0334,-0.0338 -0.13098,-0.20229 -0.131,-0.2023 -0.0717,-0.16552 -0.0718,-0.16551 -0.0496,-0.15632 -0.0496,-0.15632 -0.0194,-0.0798 -0.0193,-0.0797 -0.26483,-0.0693 -0.26484,-0.0693 -0.0932,-0.0303 -0.0933,-0.0303 h -0.0211 -0.0211 l 5e-5,0.0138 z"
       id="path8247" />
  </g>
</svg>
