<?xml version="1.0" encoding="UTF-8" standalone="no"?>
<!-- Created with Inkscape (http://www.inkscape.org/) -->

<svg
   width="210mm"
   height="297mm"
   viewBox="0 0 210 297"
   version="1.1"
   id="svg58419"
   inkscape:version="1.2.2 (732a01da63, 2022-12-09, custom)"
   sodipodi:docname="hojascaen1.svg"
   xmlns:inkscape="http://www.inkscape.org/namespaces/inkscape"
   xmlns:sodipodi="http://sodipodi.sourceforge.net/DTD/sodipodi-0.dtd"
   xmlns:xlink="http://www.w3.org/1999/xlink"
   xmlns="http://www.w3.org/2000/svg"
   xmlns:svg="http://www.w3.org/2000/svg">
  <sodipodi:namedview
     id="namedview58421"
     pagecolor="#ffffff"
     bordercolor="#111111"
     borderopacity="1"
     inkscape:showpageshadow="0"
     inkscape:pageopacity="0"
     inkscape:pagecheckerboard="1"
     inkscape:deskcolor="#d1d1d1"
     inkscape:document-units="mm"
     showgrid="false"
     inkscape:zoom="1.0191358"
     inkscape:cx="379.24288"
     inkscape:cy="243.83404"
     inkscape:window-width="1536"
     inkscape:window-height="800"
     inkscape:window-x="0"
     inkscape:window-y="0"
     inkscape:window-maximized="1"
     inkscape:current-layer="layer1" />
  <defs
     id="defs58416">
    <linearGradient
       inkscape:collect="always"
       id="linearGradient1093">
      <stop
         style="stop-color:#046600;stop-opacity:1;"
         offset="0"
         id="stop1089" />
      <stop
         style="stop-color:#ff0037;stop-opacity:1;"
         offset="1"
         id="stop1091" />
    </linearGradient>
    <linearGradient
       inkscape:collect="always"
       xlink:href="#linearGradient1093"
       id="linearGradient48038"
       gradientUnits="userSpaceOnUse"
       gradientTransform="matrix(-0.00178905,0.01857975,-0.01253785,-0.00136661,90.551328,182.39856)"
       x1="130.25296"
       y1="525.87402"
       x2="451.07901"
       y2="-3.9140973" />
    <linearGradient
       inkscape:collect="always"
       id="linearGradient1057">
      <stop
         style="stop-color:#046600;stop-opacity:1;"
         offset="0"
         id="stop1053" />
      <stop
         style="stop-color:#000000;stop-opacity:1;"
         offset="1"
         id="stop1055" />
    </linearGradient>
    <linearGradient
       inkscape:collect="always"
       id="linearGradient942">
      <stop
         style="stop-color:#011200;stop-opacity:1;"
         offset="0"
         id="stop938" />
      <stop
         style="stop-color:#022800;stop-opacity:0.94741446;"
         offset="0.66122651"
         id="stop944" />
      <stop
         style="stop-color:#000000;stop-opacity:0;"
         offset="1"
         id="stop940" />
    </linearGradient>
    <linearGradient
       inkscape:collect="always"
       id="linearGradient1035">
      <stop
         style="stop-color:#046600;stop-opacity:1;"
         offset="0"
         id="stop1031" />
      <stop
         style="stop-color:#ff0037;stop-opacity:0.61478794;"
         offset="1"
         id="stop1033" />
    </linearGradient>
    <linearGradient
       inkscape:collect="always"
       id="linearGradient1005">
      <stop
         style="stop-color:#000000;stop-opacity:1;"
         offset="0"
         id="stop999" />
      <stop
         style="stop-color:#078c00;stop-opacity:0.47058824;"
         offset="0.66122651"
         id="stop1001" />
      <stop
         style="stop-color:#00ff17;stop-opacity:0;"
         offset="1"
         id="stop1003" />
    </linearGradient>
    <linearGradient
       inkscape:collect="always"
       id="linearGradient1079">
      <stop
         style="stop-color:#011200;stop-opacity:1;"
         offset="0"
         id="stop1073" />
      <stop
         style="stop-color:#022800;stop-opacity:1;"
         offset="0.66122651"
         id="stop1075" />
      <stop
         style="stop-color:#000000;stop-opacity:0;"
         offset="1"
         id="stop1077" />
    </linearGradient>
    <linearGradient
       inkscape:collect="always"
       xlink:href="#linearGradient1093"
       id="linearGradient47988"
       gradientUnits="userSpaceOnUse"
       gradientTransform="matrix(0.01053267,0,0,0.00804564,84.582878,10.161219)"
       x1="130.25296"
       y1="525.87402"
       x2="451.07901"
       y2="-3.9140973" />
    <linearGradient
       inkscape:collect="always"
       xlink:href="#linearGradient1067"
       id="linearGradient47960"
       gradientUnits="userSpaceOnUse"
       gradientTransform="matrix(-0.021066,0,0,-0.01609181,161.10041,122.73557)"
       x1="130.25296"
       y1="525.87402"
       x2="451.07901"
       y2="-3.9140973" />
    <linearGradient
       inkscape:collect="always"
       id="linearGradient1067">
      <stop
         style="stop-color:#046600;stop-opacity:1;"
         offset="0"
         id="stop1063" />
      <stop
         style="stop-color:#edc405;stop-opacity:1;"
         offset="1"
         id="stop1065" />
    </linearGradient>
    <linearGradient
       inkscape:collect="always"
       xlink:href="#linearGradient942"
       id="linearGradient47948"
       gradientUnits="userSpaceOnUse"
       gradientTransform="matrix(-0.01053299,0,0,0.00804589,119.21815,95.017179)"
       x1="122.59455"
       y1="578.54382"
       x2="439.49298"
       y2="25.429077" />
    <linearGradient
       inkscape:collect="always"
       xlink:href="#linearGradient1057"
       id="linearGradient47896"
       gradientUnits="userSpaceOnUse"
       gradientTransform="matrix(0.0018978,-0.01102283,0.00743835,0.00144968,128.50126,140.57507)"
       x1="130.25296"
       y1="525.87402"
       x2="451.07901"
       y2="-3.9140973" />
    <linearGradient
       inkscape:collect="always"
       xlink:href="#linearGradient1093"
       id="linearGradient47882"
       gradientUnits="userSpaceOnUse"
       gradientTransform="matrix(-0.00483094,0.00542168,0.00365861,0.00369022,89.060498,118.43098)"
       x1="130.25296"
       y1="525.87402"
       x2="451.07901"
       y2="-3.9140973" />
    <linearGradient
       inkscape:collect="always"
       xlink:href="#linearGradient1005"
       id="linearGradient47848"
       gradientUnits="userSpaceOnUse"
       gradientTransform="matrix(3.3531489e-4,-0.01493745,0.01007991,2.5613109e-4,64.355928,35.347479)"
       x1="122.59455"
       y1="578.54382"
       x2="439.49298"
       y2="25.429077" />
    <linearGradient
       inkscape:collect="always"
       xlink:href="#linearGradient1093"
       id="linearGradient47798"
       gradientUnits="userSpaceOnUse"
       gradientTransform="matrix(-0.00889901,-0.02031432,-0.01370838,0.00679773,105.61306,206.55727)"
       x1="130.25296"
       y1="525.87402"
       x2="451.07901"
       y2="-3.9140973" />
    <linearGradient
       inkscape:collect="always"
       xlink:href="#linearGradient1057"
       id="linearGradient47782"
       gradientUnits="userSpaceOnUse"
       gradientTransform="matrix(-0.00559872,0.0094921,0.00640541,0.00427672,104.72181,135.23492)"
       x1="130.25296"
       y1="525.87402"
       x2="451.07901"
       y2="-3.9140973" />
    <linearGradient
       inkscape:collect="always"
       xlink:href="#linearGradient1079"
       id="linearGradient47780"
       gradientUnits="userSpaceOnUse"
       gradientTransform="matrix(-0.00115987,-0.01149868,-0.00775948,8.859972e-4,190.91455,65.912377)"
       x1="122.59455"
       y1="578.54382"
       x2="439.49298"
       y2="25.429077" />
    <linearGradient
       inkscape:collect="always"
       xlink:href="#linearGradient1035"
       id="linearGradient47724"
       gradientUnits="userSpaceOnUse"
       gradientTransform="matrix(-0.00143475,-0.01110173,-0.0074916,0.00109597,133.2451,165.75677)"
       x1="130.25296"
       y1="525.87402"
       x2="451.07901"
       y2="-3.9140973" />
  </defs>
  <g
     inkscape:label="Capa 1"
     inkscape:groupmode="layer"
     id="layer1">
    <path
       style="fill:url(#linearGradient48038);fill-opacity:1;stroke-width:0.0175344"
       d="m 83.029368,183.78881 0.0111,9.3e-4 0.14608,0.0596 0.14607,0.0596 0.10629,0.0538 0.10628,0.0537 0.14811,0.0895 0.14811,0.0894 0.12263,0.0879 0.12262,0.0879 0.13902,0.12704 0.13902,0.12704 0.10851,0.13046 0.1085,0.13044 0.0805,0.13896 0.0805,0.13896 0.1004,0.25863 0.1004,0.25862 0.0881,0.20281 0.0881,0.2028 0.18443,0.35012 0.18444,0.35012 0.16343,0.25762 0.16342,0.25761 0.15538,0.21323 0.15538,0.21323 0.16687,0.19941 0.16688,0.1994 0.19007,0.19799 0.19008,0.19802 0.24083,0.21399 0.24083,0.21399 0.22314,0.16376 0.22314,0.16377 0.18238,0.10953 0.1824,0.10953 0.007,-0.008 0.007,-0.008 -0.0987,-0.0606 -0.0987,-0.0606 -0.14131,-0.1113 -0.14132,-0.11132 -0.21937,-0.20282 -0.21939,-0.20282 -0.17674,-0.19455 -0.17674,-0.19454 -0.12267,-0.1545 -0.12268,-0.15453 -0.12798,-0.17448 -0.128,-0.17449 -0.17678,-0.26927 -0.17679,-0.26927 -0.20863,-0.37523 -0.20864,-0.37523 -0.16402,-0.35046 -0.16402,-0.35046 -0.0931,-0.22673 -0.0931,-0.22674 -0.0985,-0.24033 -0.0985,-0.24033 -0.10107,-0.16786 -0.10106,-0.16786 -0.10262,-0.13769 -0.10262,-0.1377 -0.062,-0.0711 -0.062,-0.0711 0.001,-0.015 10e-4,-0.015 0.10873,-0.0773 0.10873,-0.0773 0.14084,-0.0707 0.14085,-0.0707 0.19706,-0.0707 0.19707,-0.0708 0.14568,-0.0302 0.14569,-0.0303 0.15331,-0.0134 0.15335,-0.0136 0.24673,0.0265 0.24673,0.0265 0.15753,0.0507 0.15754,0.0507 0.15272,0.0781 0.15273,0.0781 0.12744,0.0911 0.12745,0.0911 0.13349,0.12232 0.13348,0.12232 0.12965,0.15446 0.12965,0.15445 0.12133,0.1803 0.12133,0.18031 0.14133,0.27017 0.14133,0.27017 0.0898,0.21664 0.0898,0.21665 0.0948,0.27554 0.0948,0.27556 0.0593,0.21032 0.0593,0.21029 0.0635,0.25369 0.0635,0.25368 0.0652,0.32754 0.0651,0.32754 0.0625,0.39444 0.0625,0.39445 0.0579,0.25006 0.0579,0.25007 0.0709,0.2228 0.0708,0.2228 0.0976,0.24915 0.0976,0.24914 0.0784,0.16946 0.0783,0.16947 -0.001,0.0146 -10e-4,0.0146 -0.15144,0.1067 -0.15146,0.1067 -0.24504,0.13884 -0.24503,0.13883 -0.20374,0.0857 -0.20374,0.0857 -0.2108,0.0627 -0.2108,0.0627 -0.18227,0.0345 -0.18226,0.0345 -0.16812,0.0167 -0.16812,0.0167 -0.37354,-0.0303 -0.37356,-0.0302 -0.2394,-0.0702 -0.2394,-0.0702 -0.13271,-0.0684 -0.13272,-0.0684 -0.14137,-0.0923 -0.14139,-0.0923 -0.20008,-0.17775 -0.20008,-0.17774 -0.12431,-0.13755 -0.12431,-0.13755 -0.14532,-0.19862 -0.14532,-0.19862 -0.11799,-0.20836 -0.11798,-0.20836 -0.0877,-0.19574 -0.0877,-0.19572 -0.0847,-0.24718 -0.0847,-0.24718 -0.0706,-0.31313 -0.0706,-0.31313 -0.033,-0.2536 -0.033,-0.25359 -0.0135,-0.24919 -0.0136,-0.24919 -2.5e-4,-0.22111 -2.6e-4,-0.22111 0.028,-0.38317 0.028,-0.38319 0.049,-0.3235 0.0489,-0.32352 -0.0234,-0.0324 -0.0236,-0.0323 -0.1465,-0.13272 -0.14648,-0.1327 -0.12288,-0.0773 -0.12287,-0.0773 -0.11758,-0.057 -0.11758,-0.057 -0.0604,-0.0239 -0.0604,-0.0239 -0.0315,-0.23946 -0.0315,-0.23946 -0.0158,-0.0848 -0.0157,-0.0848 0.002,-0.0186 0.002,-0.0186 0.0111,9.3e-4 z"
       id="path47376" />
    <path
       style="fill:url(#linearGradient47988);fill-opacity:1;stroke-width:0.0105206"
       d="m 85.822768,14.852978 3e-5,-0.0069 0.0244,-0.09641 0.0246,-0.09641 0.0237,-0.07073 0.0237,-0.07072 0.0411,-0.09952 0.0411,-0.09952 0.0419,-0.08325 0.0419,-0.08325 0.0627,-0.09605 0.0627,-0.09605 0.0665,-0.07686 0.0665,-0.07686 0.0731,-0.05964 0.0731,-0.05964 0.13895,-0.07959 0.13895,-0.07959 0.10839,-0.06835 0.10839,-0.06835 0.18514,-0.138535 0.18515,-0.138535 0.13452,-0.119534 0.13453,-0.119536 0.11006,-0.11171 0.11017,-0.111709 0.10162,-0.118166 0.10162,-0.118166 0.0995,-0.132815 0.0995,-0.132817 0.10528,-0.166022 0.10528,-0.166022 0.0782,-0.151718 0.0782,-0.151717 0.0503,-0.122524 0.0503,-0.122523 -0.004,-0.0037 -0.004,-0.0037 -0.028,0.06645 -0.028,0.06645 -0.0539,0.09655 -0.0539,0.09655 -0.10039,0.151718 -0.1004,0.151718 -0.0983,0.124132 -0.0983,0.124133 -0.0792,0.08735 -0.0792,0.08735 -0.0901,0.09195 -0.0901,0.09195 -0.14025,0.128731 -0.14024,0.12873 -0.19775,0.155438 -0.19774,0.155437 -0.18659,0.125589 -0.18657,0.125589 -0.12151,0.07298 -0.12151,0.07298 -0.1288,0.07726 -0.1288,0.07726 -0.088,0.07446 -0.088,0.07446 -0.071,0.07356 -0.071,0.07356 -0.0361,0.04366 -0.0361,0.04366 h -0.009 -0.009 l -0.05,-0.06431 -0.05,-0.06431 -0.0483,-0.08511 -0.0483,-0.08512 -0.0518,-0.120821 -0.0517,-0.12082 -0.0259,-0.09066 -0.0259,-0.09067 -0.017,-0.09655 -0.017,-0.09655 -2.6e-4,-0.158299 -2.7e-4,-0.158297 0.0189,-0.10314 0.0188,-0.10314 0.0344,-0.101765 0.0344,-0.101766 0.0433,-0.0865 0.0433,-0.0865 0.0604,-0.09225 0.0604,-0.09225 0.0787,-0.09178 0.0787,-0.09178 0.0937,-0.08807 0.0937,-0.08808 0.14293,-0.10627 0.14293,-0.106271 0.11603,-0.07034 0.11604,-0.07033 0.14878,-0.07711 0.14879,-0.07711 0.11436,-0.05056 0.11434,-0.05056 0.13844,-0.05585 0.13842,-0.05585 0.17977,-0.06136 0.17978,-0.06136 0.21746,-0.06381 0.21747,-0.06381 0.13674,-0.05204 0.13676,-0.05204 0.12066,-0.05863 0.12065,-0.05863 0.1338,-0.0772 0.13381,-0.0772 0.0903,-0.0601 0.0903,-0.0601 0.009,-4e-5 0.008,-4e-5 0.0692,0.08965 0.0692,0.08965 0.0928,0.147119 0.0928,0.147121 0.0606,0.124133 0.0606,0.124132 0.0481,0.130034 0.0481,0.130033 0.0305,0.113635 0.0305,0.113635 0.0197,0.105744 0.0197,0.105742 0.006,0.239071 0.006,0.23907 -0.0248,0.156315 -0.0248,0.156315 -0.0303,0.08847 -0.0303,0.08847 -0.0431,0.09543 -0.0431,0.09543 -0.0875,0.137926 -0.0875,0.137926 -0.0695,0.08735 -0.0695,0.08735 -0.10251,0.104429 -0.10251,0.104428 -0.10972,0.08767 -0.10973,0.08767 -0.1044,0.06771 -0.10439,0.06771 -0.13349,0.06891 -0.13349,0.06891 -0.17134,0.06403 -0.17135,0.06402 -0.14026,0.03646 -0.14025,0.03646 -0.13896,0.02381 -0.13898,0.02381 -0.12402,0.0137 -0.12403,0.0137 -0.21668,0.0058 -0.21666,0.0058 -0.18449,-0.0113 -0.18448,-0.0113 -0.0168,0.01689 -0.0168,0.01689 -0.0655,0.101146 -0.0655,0.101144 -0.0359,0.08276 -0.0359,0.08275 -0.0249,0.07816 -0.0249,0.07816 -0.01,0.03987 -0.01,0.03987 -0.13242,0.03465 -0.1324,0.03465 -0.0466,0.01513 -0.0466,0.01513 h -0.0111 -0.0111 l 2e-5,-0.0069 z"
       id="path47426" />
    <path
       style="fill:url(#linearGradient47960);fill-opacity:1;stroke-width:0.021042"
       d="m 158.62059,113.35176 v 0.0138 l -0.0491,0.19281 -0.049,0.19282 -0.0473,0.14147 -0.0473,0.14145 -0.0822,0.19906 -0.0822,0.19905 -0.0838,0.1665 -0.0838,0.1665 -0.12552,0.19212 -0.12554,0.19211 -0.13311,0.15372 -0.13312,0.15371 -0.14607,0.11929 -0.14606,0.11926 -0.27791,0.15919 -0.2779,0.15918 -0.21678,0.13672 -0.21679,0.13671 -0.37028,0.27707 -0.3703,0.27708 -0.26908,0.23909 -0.26906,0.23908 -0.22023,0.22343 -0.22024,0.22341 -0.20335,0.23635 -0.20333,0.23634 -0.19892,0.26563 -0.19892,0.26564 -0.21066,0.33206 -0.21066,0.33205 -0.15646,0.30344 -0.15645,0.30346 -0.10061,0.24505 -0.10063,0.24505 0.01,0.007 0.01,0.007 0.0559,-0.13291 0.0559,-0.1329 0.10762,-0.19311 0.10761,-0.1931 0.20073,-0.30345 0.20075,-0.30344 0.19667,-0.24827 0.19668,-0.24828 0.15835,-0.17471 0.15836,-0.17471 0.18016,-0.18391 0.18012,-0.1839 0.28052,-0.25747 0.2805,-0.25746 0.3955,-0.3109 0.39552,-0.31088 0.37316,-0.25119 0.37318,-0.25118 0.24303,-0.14596 0.24301,-0.14597 0.25762,-0.15453 0.2576,-0.15453 0.17598,-0.14892 0.17599,-0.14892 0.14195,-0.14712 0.14194,-0.14712 0.0722,-0.0873 0.0722,-0.0873 0.0169,-3e-5 0.0169,-3e-5 0.10007,0.12863 0.10006,0.12861 0.0966,0.17024 0.0966,0.17022 0.10351,0.24165 0.1035,0.24165 0.0517,0.18134 0.0517,0.18134 0.034,0.19309 0.0339,0.19311 v 0.3166 0.31661 l -0.0377,0.20629 -0.0376,0.20628 -0.0689,0.20355 -0.0688,0.20353 -0.0866,0.17301 -0.0866,0.17301 -0.12091,0.18451 -0.12094,0.1845 -0.15745,0.18356 -0.15745,0.18356 -0.18746,0.17616 -0.18747,0.17615 -0.28586,0.21254 -0.28586,0.21256 -0.23208,0.14067 -0.23209,0.14067 -0.29757,0.15424 -0.29759,0.15422 -0.22872,0.10113 -0.22872,0.10112 -0.27686,0.11172 -0.27686,0.1117 -0.35955,0.12272 -0.35954,0.12273 -0.43495,0.12761 -0.43495,0.12762 -0.27352,0.10409 -0.2735,0.10409 -0.24132,0.11726 -0.2413,0.11727 -0.26763,0.1544 -0.26761,0.15439 -0.18056,0.12021 -0.18057,0.1202 -0.0166,8e-5 -0.0166,9e-5 -0.1383,-0.17931 -0.1383,-0.17931 -0.18576,-0.29425 -0.18572,-0.29425 -0.1212,-0.24828 -0.12118,-0.24828 -0.0961,-0.26006 -0.0961,-0.26008 -0.0611,-0.22728 -0.0611,-0.22727 -0.0392,-0.2115 -0.0392,-0.21148 -0.0117,-0.47816 -0.0117,-0.47816 0.0494,-0.31264 0.0494,-0.31263 0.0605,-0.17695 0.0605,-0.17695 0.0863,-0.19086 0.0863,-0.19088 0.17496,-0.27585 0.17497,-0.27586 0.13913,-0.17471 0.13914,-0.17471 0.20509,-0.20887 0.20508,-0.20886 0.21936,-0.17534 0.21938,-0.17534 0.20887,-0.13543 0.20887,-0.13542 0.26698,-0.13782 0.26699,-0.13783 0.34269,-0.12806 0.34272,-0.12805 0.28051,-0.0729 0.28052,-0.0729 0.27793,-0.0476 0.27796,-0.0476 0.24806,-0.0274 0.24806,-0.0274 0.43336,-0.0117 0.43336,-0.0118 0.36899,0.0226 0.36897,0.0227 0.0335,-0.0338 0.0334,-0.0338 0.13101,-0.20231 0.13098,-0.20229 0.0718,-0.16552 0.0718,-0.16552 0.0497,-0.15632 0.0496,-0.15631 0.0193,-0.0798 0.0193,-0.0798 0.26482,-0.0693 0.26482,-0.0693 0.0933,-0.0303 0.0932,-0.0303 h 0.0211 0.0211 v 0.0138 z"
       id="path47454" />
    <path
       style="fill:url(#linearGradient47948);fill-opacity:1;stroke-width:0.010521"
       d="m 117.97823,99.70908 -5e-5,-0.0065 -0.0245,-0.09641 -0.0245,-0.0964 -0.0237,-0.07074 -0.0237,-0.07074 -0.041,-0.09952 -0.041,-0.09953 -0.0418,-0.08323 -0.0418,-0.08323 -0.0627,-0.09605 -0.0627,-0.09607 -0.0666,-0.07689 -0.0666,-0.07689 -0.073,-0.05965 -0.0731,-0.05965 -0.13896,-0.0796 -0.13896,-0.0796 -0.10839,-0.06836 -0.10839,-0.06836 -0.18515,-0.138542 -0.18513,-0.138538 -0.13454,-0.119537 -0.13454,-0.119541 -0.11017,-0.111709 -0.11017,-0.11171 -0.10162,-0.118172 -0.10162,-0.118169 -0.0995,-0.132821 -0.0995,-0.132817 -0.10528,-0.166029 -0.10528,-0.166025 -0.0782,-0.151725 -0.0782,-0.151722 -0.0503,-0.122526 -0.0503,-0.12253 0.005,-0.0036 0.005,-0.0036 0.028,0.06645 0.028,0.06646 0.0539,0.09655 0.0539,0.09655 0.1004,0.151722 0.1004,0.151724 0.0983,0.124137 0.0983,0.124134 0.0791,0.08736 0.0792,0.08736 0.09,0.09195 0.09,0.09195 0.14025,0.128732 0.14025,0.128735 0.19775,0.155443 0.19777,0.155443 0.18658,0.125592 0.18657,0.125593 0.12151,0.07298 0.12151,0.07299 0.12881,0.07727 0.1288,0.07727 0.088,0.07447 0.088,0.07447 0.071,0.07354 0.071,0.07354 0.036,0.04362 0.0361,0.04362 0.009,1.8e-5 0.009,1.9e-5 0.05,-0.06431 0.05,-0.06431 0.0483,-0.08509 0.0483,-0.08509 0.0517,-0.120821 0.0518,-0.120815 0.0259,-0.09067 0.0258,-0.09067 0.017,-0.09655 0.017,-0.09655 v -0.158414 -0.158304 l -0.0189,-0.103142 -0.0188,-0.103144 -0.0345,-0.101771 -0.0345,-0.101772 -0.0433,-0.0865 -0.0433,-0.0865 -0.0604,-0.09224 -0.0604,-0.09224 -0.0787,-0.09178 -0.0787,-0.09178 -0.0938,-0.08808 -0.0938,-0.08808 -0.14293,-0.106274 -0.14292,-0.106274 -0.11605,-0.07034 -0.11605,-0.07034 -0.14878,-0.07711 -0.14878,-0.07711 -0.11436,-0.05056 -0.11437,-0.05056 -0.13843,-0.05586 -0.13843,-0.05586 -0.17977,-0.06136 -0.17978,-0.06137 -0.21747,-0.06381 -0.21748,-0.06381 -0.13676,-0.05204 -0.13675,-0.05204 -0.12066,-0.05864 -0.12065,-0.05863 -0.13382,-0.07721 -0.1338,-0.07721 -0.0903,-0.06011 -0.0902,-0.06011 -0.008,-3.9e-5 -0.008,-3.9e-5 -0.0692,0.08966 -0.0692,0.08965 -0.0929,0.147125 -0.0928,0.147123 -0.0607,0.12414 -0.0607,0.124135 -0.0481,0.130038 -0.0481,0.130036 -0.0305,0.113635 -0.0305,0.113636 -0.0196,0.105742 -0.0196,0.105742 -0.006,0.239075 -0.006,0.23908 0.0247,0.156321 0.0247,0.15632 0.0303,0.08848 0.0303,0.08847 0.0432,0.09543 0.0431,0.09544 0.0875,0.137928 0.0875,0.137933 0.0695,0.08736 0.0695,0.08736 0.1025,0.104431 0.10251,0.10443 0.10962,0.08767 0.10973,0.0877 0.10439,0.06767 0.10451,0.06776 0.13349,0.06888 0.13348,0.06888 0.17135,0.06403 0.17136,0.06403 0.14026,0.03644 0.14025,0.03644 0.13898,0.02386 0.13897,0.02386 0.12403,0.0137 0.12403,0.0137 0.21668,0.0056 0.21667,0.0056 0.18451,-0.01128 0.18449,-0.01137 0.0168,0.01687 0.0168,0.01696 0.0655,0.101145 0.0655,0.101145 0.0358,0.08277 0.0358,0.08276 0.0248,0.0782 0.0248,0.0782 0.01,0.03989 0.01,0.03989 0.13242,0.03467 0.13243,0.03467 0.0466,0.0151 0.0466,0.0151 h 0.0111 0.0111 l -3e-5,-0.0065 z"
       id="path47466" />
    <path
       style="fill:url(#linearGradient47896);fill-opacity:1;stroke-width:0.0105207"
       d="m 133.06231,140.12286 -0.007,-9.4e-4 -0.0847,-0.0431 -0.0847,-0.0428 -0.0611,-0.0375 -0.0611,-0.0375 -0.0846,-0.0609 -0.0846,-0.061 -0.0694,-0.0588 -0.0694,-0.0588 -0.0776,-0.0829 -0.0775,-0.083 -0.0591,-0.0835 -0.0591,-0.0835 -0.042,-0.0872 -0.042,-0.0872 -0.0485,-0.15975 -0.0485,-0.15976 -0.0437,-0.12575 -0.0436,-0.12573 -0.0948,-0.21873 -0.0947,-0.21871 -0.0863,-0.16235 -0.0863,-0.16232 -0.0834,-0.13537 -0.0834,-0.13536 -0.0909,-0.12768 -0.0909,-0.12767 -0.10485,-0.12802 -0.10484,-0.12801 -0.13453,-0.14014 -0.13452,-0.14013 -0.12617,-0.10918 -0.12616,-0.10918 -0.10418,-0.0746 -0.10417,-0.0748 -0.005,0.005 -0.005,0.005 0.0565,0.0412 0.0565,0.0413 0.0795,0.0737 0.0796,0.0737 0.12218,0.13235 0.12218,0.1324 0.097,0.12526 0.0971,0.12526 0.0666,0.0987 0.0665,0.0986 0.0687,0.11084 0.0687,0.11084 0.0938,0.16998 0.0938,0.16996 0.10807,0.23494 0.10806,0.23498 0.0825,0.2179 0.0825,0.21788 0.0456,0.14032 0.0456,0.14032 0.0482,0.14871 0.0482,0.14872 0.053,0.10552 0.053,0.10551 0.0552,0.0875 0.0552,0.0876 0.0339,0.0458 0.0339,0.0458 -9.9e-4,0.008 -9.8e-4,0.008 -0.0684,0.0407 -0.0684,0.0407 -0.0874,0.0352 -0.0874,0.0352 -0.12105,0.0323 -0.12101,0.0323 -0.0886,0.0106 -0.0885,0.0106 -0.0923,3.9e-4 -0.0923,3.8e-4 -0.14635,-0.0285 -0.14636,-0.0285 -0.0919,-0.0381 -0.092,-0.0382 -0.0879,-0.0543 -0.0879,-0.0543 -0.0722,-0.061 -0.0722,-0.061 -0.0744,-0.0799 -0.0744,-0.0799 -0.0706,-0.0989 -0.0706,-0.0989 -0.0645,-0.11391 -0.0645,-0.1139 -0.0726,-0.16874 -0.0726,-0.16872 -0.0441,-0.13413 -0.0441,-0.13411 -0.0445,-0.1696 -0.0444,-0.16962 -0.0261,-0.12877 -0.0261,-0.12878 -0.0268,-0.15494 -0.0268,-0.15495 -0.0243,-0.1992 -0.0243,-0.1992 -0.0197,-0.23908 -0.0197,-0.23907 -0.0235,-0.15251 -0.0235,-0.15251 -0.0324,-0.13682 -0.0324,-0.13681 -0.0473,-0.15395 -0.0473,-0.15393 -0.0393,-0.10529 -0.0393,-0.10528 9.8e-4,-0.008 9.9e-4,-0.008 0.0952,-0.0562 0.0953,-0.0562 0.15274,-0.0707 0.15273,-0.0707 0.12569,-0.0411 0.12569,-0.0411 0.12888,-0.0269 0.12887,-0.0269 0.11061,-0.0118 0.11062,-0.0118 0.10128,-9.3e-4 0.10129,-9.3e-4 0.22209,0.0367 0.22204,0.0371 0.14008,0.054 0.14008,0.054 0.0763,0.0477 0.0763,0.0476 0.0804,0.0623 0.0804,0.0624 0.11176,0.11639 0.11175,0.11638 0.0682,0.0885 0.0681,0.0885 0.0781,0.12614 0.0781,0.12614 0.0613,0.13058 0.0613,0.13058 0.0438,0.12148 0.0438,0.12152 0.0397,0.15212 0.0397,0.15213 0.0283,0.19087 0.0283,0.19085 0.009,0.15337 0.009,0.15336 -0.003,0.14971 -0.003,0.14972 -0.01,0.1323 -0.01,0.13228 -0.0338,0.2278 -0.0338,0.22776 -0.0438,0.19102 -0.0438,0.19103 0.0128,0.0206 0.0128,0.0204 0.0818,0.0868 0.0817,0.0868 0.0701,0.0525 0.0701,0.0525 0.0679,0.04 0.0678,0.0403 0.035,0.0172 0.035,0.0172 0.008,0.14481 0.008,0.14483 0.006,0.0515 0.006,0.0515 -0.002,0.0106 -0.002,0.0106 -0.007,-9.3e-4 z"
       id="path47520" />
    <path
       style="fill:url(#linearGradient47882);fill-opacity:1;stroke-width:0.00701374"
       d="m 90.625298,121.22114 -0.003,-0.003 -0.0551,-0.0316 -0.0551,-0.0316 -0.043,-0.0202 -0.043,-0.0202 -0.0641,-0.0245 -0.0641,-0.0244 -0.0571,-0.0167 -0.057,-0.0167 -0.0725,-0.0116 -0.0725,-0.0117 -0.0655,-9.3e-4 -0.0654,-9.3e-4 -0.0606,0.0102 -0.0606,0.0102 -0.1,0.035 -0.0999,0.035 -0.0808,0.0244 -0.0808,0.0244 -0.1479,0.0318 -0.14792,0.0318 -0.11601,0.0144 -0.11609,0.0144 -0.10129,0.006 -0.10128,0.006 -0.1004,-0.002 -0.1004,-0.002 -0.10595,-0.01 -0.10595,-0.01 -0.12378,-0.022 -0.12379,-0.022 -0.10495,-0.0293 -0.10495,-0.0293 -0.0787,-0.0303 -0.0787,-0.0303 6.3e-4,-0.005 6.3e-4,-0.005 0.0431,0.016 0.0431,0.016 0.0686,0.0166 0.0686,0.0166 0.115,0.018 0.11506,0.0179 0.10151,0.007 0.10151,0.007 0.076,-6.7e-4 0.076,-6.6e-4 0.0832,-0.005 0.0832,-0.005 0.12286,-0.0131 0.12288,-0.0131 0.16138,-0.0305 0.16139,-0.0305 0.14268,-0.0385 0.14266,-0.0385 0.0889,-0.0291 0.0888,-0.029 0.0942,-0.0309 0.0942,-0.0309 0.0742,-0.0111 0.0742,-0.0111 0.066,-0.003 0.066,-0.003 0.0364,0.002 0.0364,0.002 0.003,-0.005 0.003,-0.005 -0.007,-0.0552 -0.007,-0.0552 -0.0166,-0.0639 -0.0165,-0.0639 -0.0312,-0.082 -0.0312,-0.0821 -0.0294,-0.0549 -0.0294,-0.0549 -0.0361,-0.053 -0.0361,-0.053 -0.0718,-0.0727 -0.0718,-0.0727 -0.0555,-0.0376 -0.0555,-0.0377 -0.0621,-0.0289 -0.0621,-0.0289 -0.0592,-0.0174 -0.0592,-0.0173 -0.0696,-0.0112 -0.0697,-0.0112 -0.0778,-0.002 -0.0778,-0.002 -0.0831,0.007 -0.0831,0.008 -0.11388,0.0249 -0.11386,0.0249 -0.0853,0.0275 -0.0852,0.0274 -0.10329,0.0412 -0.10328,0.0412 -0.0754,0.0358 -0.0754,0.0358 -0.0888,0.0457 -0.0888,0.0457 -0.1104,0.0644 -0.11039,0.0644 -0.12876,0.0827 -0.12876,0.0827 -0.0864,0.0465 -0.0864,0.0465 -0.082,0.0351 -0.082,0.0351 -0.0965,0.0335 -0.0965,0.0334 -0.0687,0.0189 -0.0687,0.0189 -0.003,0.005 -0.004,0.005 0.009,0.0767 0.009,0.0767 0.0243,0.11524 0.0242,0.11533 0.0286,0.0882 0.0286,0.0882 0.0371,0.0844 0.0371,0.0844 0.0376,0.0679 0.0376,0.0679 0.0391,0.0586 0.0391,0.0586 0.10561,0.11307 0.10562,0.11309 0.0824,0.059 0.0824,0.059 0.0541,0.025 0.0541,0.025 0.0632,0.0215 0.0632,0.0215 0.10284,0.0182 0.10284,0.0182 0.0716,0.005 0.0716,0.005 0.0945,-0.005 0.0945,-0.005 0.0902,-0.0162 0.0902,-0.0162 0.0787,-0.0226 0.0787,-0.0227 0.0925,-0.0371 0.0925,-0.0371 0.10773,-0.0588 0.10773,-0.0588 0.081,-0.0554 0.0808,-0.0555 0.0745,-0.0606 0.0745,-0.0606 0.0631,-0.0575 0.0631,-0.0575 0.10206,-0.10884 0.10206,-0.10885 0.0795,-0.10015 0.0794,-0.10017 0.0153,-8.8e-4 0.0153,-8.6e-4 0.076,0.0127 0.0761,0.0127 0.0541,0.0195 0.0541,0.0195 0.0469,0.0231 0.0469,0.0231 0.0228,0.0131 0.0228,0.0131 0.0765,-0.0523 0.0765,-0.0523 0.0282,-0.0171 0.0282,-0.0172 0.004,-0.006 0.004,-0.006 -0.003,-0.003 z"
       id="path47534" />
    <path
       style="fill:url(#linearGradient47848);fill-opacity:1;stroke-width:0.0140276"
       d="m 70.273428,33.738451 -0.009,-1.97e-4 -0.12001,-0.0378 -0.12,-0.03785 -0.0879,-0.0358 -0.0879,-0.03575 -0.12338,-0.06144 -0.12338,-0.06143 -0.10296,-0.062 -0.10297,-0.06199 -0.11834,-0.09209 -0.11835,-0.09209 -0.0942,-0.09683 -0.0942,-0.09684 -0.0724,-0.10547 -0.0724,-0.105471 -0.0953,-0.199599 -0.0953,-0.199583 -0.0822,-0.155884 -0.0822,-0.155881 -0.16766,-0.266999 -0.16767,-0.266971 -0.14548,-0.194605 -0.14547,-0.194579 -0.13645,-0.159729 -0.13645,-0.159727 -0.1448,-0.147942 -0.14481,-0.147941 -0.16323,-0.145274 -0.16324,-0.145285 -0.20464,-0.154653 -0.20464,-0.154657 -0.1876,-0.115773 -0.18758,-0.115762 -0.15191,-0.07528 -0.15189,-0.07528 -0.005,0.0067 -0.005,0.0067 0.0824,0.04176 0.0824,0.04175 0.11924,0.07942 0.11925,0.07942 0.18688,0.147185 0.18688,0.147161 0.15239,0.143407 0.15239,0.143406 0.10692,0.11509 0.10693,0.115065 0.11233,0.130669 0.11233,0.130655 0.15681,0.202987 0.15681,0.202998 0.18845,0.285397 0.18844,0.285413 0.15141,0.268594 0.15141,0.268608 0.0876,0.174645 0.0876,0.174646 0.0927,0.185111 0.0927,0.185129 0.0905,0.127163 0.0905,0.127162 0.0899,0.103001 0.0899,0.102977 0.0536,0.0526 0.0536,0.05259 -3.1e-4,0.01216 -3.1e-4,0.01216 -0.0822,0.06888 -0.0822,0.06888 -0.10817,0.06579 -0.10818,0.06578 -0.15302,0.06955 -0.15301,0.06958 -0.11441,0.03379 -0.11442,0.03378 -0.12151,0.02095 -0.12149,0.02106 -0.19832,-0.0051 -0.19832,-0.0051 -0.12862,-0.03002 -0.12862,-0.02997 -0.12639,-0.05212 -0.1264,-0.05211 -0.107,-0.06424 -0.10699,-0.0642 -0.11365,-0.08868 -0.11366,-0.08866 -0.11248,-0.114569 -0.11247,-0.114569 -0.10737,-0.13574 -0.10735,-0.135734 -0.12859,-0.206072 -0.12858,-0.206088 -0.0844,-0.166813 -0.0844,-0.166797 -0.0919,-0.213468 -0.0919,-0.213458 -0.0597,-0.16378 -0.0597,-0.163793 -0.0656,-0.198091 -0.0656,-0.198089 -0.0712,-0.256909 -0.0712,-0.256903 -0.073,-0.310447 -0.073,-0.310433 -0.0609,-0.195594 -0.0609,-0.195591 -0.0696,-0.172986 -0.0696,-0.172995 -0.0925,-0.192203 -0.0924,-0.192235 -0.0724,-0.129952 -0.0724,-0.129944 2.5e-4,-0.01187 2.5e-4,-0.01187 0.11452,-0.09521 0.11452,-0.0952 0.18727,-0.127002 0.18728,-0.127039 0.15745,-0.08199 0.15744,-0.08198 0.16445,-0.06407 0.16444,-0.06407 0.14335,-0.03962 0.14334,-0.03962 0.13309,-0.02452 0.13309,-0.02452 0.29971,-6.56e-4 0.2997,-6.56e-4 0.19505,0.04003 0.19506,0.04003 0.10988,0.04576 0.10988,0.04576 0.11819,0.06422 0.11818,0.06421 0.17001,0.128457 0.17001,0.128454 0.10723,0.10143 0.10723,0.101441 0.12757,0.148754 0.12757,0.148757 0.10634,0.158323 0.10634,0.158325 0.0815,0.150277 0.0815,0.150274 0.0821,0.191502 0.0821,0.191498 0.0747,0.245041 0.0747,0.24506 0.0412,0.200057 0.0412,0.200056 0.0254,0.197849 0.0254,0.197844 0.0132,0.176336 0.0132,0.176334 4.3e-4,0.307476 4.3e-4,0.307451 -0.02,0.261285 -0.02,0.261288 0.0206,0.02426 0.0206,0.02426 0.12463,0.0961 0.12464,0.0961 0.10253,0.05347 0.10253,0.05347 0.0971,0.03769 0.0971,0.03768 0.0496,0.01492 0.0496,0.01492 0.0393,0.188896 0.0392,0.18887 0.0175,0.06658 0.0175,0.06658 -3.4e-4,0.01499 -3.4e-4,0.01499 -0.009,-1.97e-4 z"
       id="path47568" />
    <path
       style="fill:url(#linearGradient47798);fill-opacity:1;stroke-width:0.0210413"
       d="m 96.571558,208.12998 0.0119,-0.005 0.14356,-0.12868 0.14356,-0.12868 0.10051,-0.1054 0.10051,-0.10527 0.13455,-0.16361 0.13454,-0.16361 0.10618,-0.15129 0.10617,-0.15126 0.11061,-0.2022 0.11062,-0.20218 0.0747,-0.19329 0.0747,-0.19327 0.0399,-0.19121 0.0399,-0.1912 0.0182,-0.33525 0.0182,-0.33523 0.0249,-0.26682 0.025,-0.26678 0.0796,-0.47413 0.0796,-0.47412 0.09,-0.36048 0.09,-0.36045 0.0973,-0.30677 0.0973,-0.30675 0.11541,-0.29593 0.11541,-0.29595 0.1423,-0.304 0.14224,-0.30409 0.19387,-0.34339 0.19389,-0.3434 0.1924,-0.27906 0.19241,-0.27908 0.166212,-0.20059 0.16621,-0.20058 0.0111,0.007 0.0111,0.007 -0.0898,0.10989 -0.0898,0.1099 -0.119032,0.18535 -0.11904,0.18536 -0.1737,0.32174 -0.17372,0.32175 -0.12843,0.29453 -0.12844,0.29452 -0.082,0.22656 -0.082,0.22647 -0.0806,0.25139 -0.0806,0.25138 -0.10084,0.37925 -0.10084,0.37927 -0.0977,0.51272 -0.0977,0.51273 -0.0563,0.46595 -0.0563,0.46596 -0.0217,0.29603 -0.0217,0.29602 -0.0228,0.31366 -0.0228,0.31369 -0.0525,0.2326 -0.0526,0.23259 -0.0654,0.19905 -0.0654,0.19904 -0.044,0.10646 -0.0439,0.10658 0.007,0.0164 0.008,0.0163 0.15184,0.0421 0.15185,0.0422 0.18583,0.0212 0.18586,0.0213 0.24956,-0.003 0.24959,-0.003 0.17635,-0.0266 0.17637,-0.0266 0.1788,-0.0488 0.17886,-0.0488 0.269932,-0.13326 0.26993,-0.13327 0.15981,-0.12349 0.15983,-0.12351 0.14422,-0.15252 0.14422,-0.15252 0.11051,-0.15684 0.1105,-0.15684 0.10617,-0.19452 0.10617,-0.19453 0.0898,-0.22938 0.0898,-0.22937 0.0708,-0.2552 0.0709,-0.25519 0.0602,-0.36547 0.0603,-0.36546 0.0219,-0.28322 0.0219,-0.28323 0.006,-0.35213 0.006,-0.3521 -0.01,-0.26328 -0.01,-0.26327 -0.0218,-0.31418 -0.0218,-0.31418 -0.0473,-0.39856 -0.0473,-0.39857 -0.0751,-0.47333 -0.0751,-0.47333 -0.0269,-0.30772 -0.0269,-0.30772 -0.002,-0.28225 -0.002,-0.28225 0.0184,-0.32329 0.0186,-0.32329 0.0261,-0.22491 0.0261,-0.22488 -0.008,-0.0156 -0.008,-0.0156 -0.21116,-0.0577 -0.21115,-0.0577 -0.32913,-0.0548 -0.32914,-0.0548 -0.26269,-0.0119 -0.26269,-0.012 -0.262202,0.0172 -0.26218,0.0171 -0.21938,0.0375 -0.21937,0.0376 -0.19672,0.0515 -0.19673,0.0515 -0.4123,0.19064 -0.4123,0.19064 -0.24545,0.17974 -0.24546,0.17974 -0.1251,0.13318 -0.12513,0.13318 -0.12615,0.16384 -0.12614,0.16385 -0.16105,0.28529 -0.16114,0.28521 -0.0901,0.20797 -0.0901,0.20797 -0.0913,0.28603 -0.0913,0.28604 -0.0568,0.2856 -0.0567,0.28561 -0.0271,0.25861 -0.0271,0.25862 -0.004,0.31571 -0.004,0.31566 0.0357,0.3846 0.0356,0.38455 0.0563,0.30132 0.0563,0.30133 0.0768,0.28813 0.0769,0.28815 0.0815,0.25077 0.0814,0.25079 0.17311,0.42285 0.17309,0.42283 0.17511,0.34627 0.17512,0.34628 -0.0147,0.0464 -0.0147,0.0464 -0.11698,0.21179 -0.11697,0.21181 -0.11094,0.13885 -0.11095,0.13887 -0.11218,0.1139 -0.11218,0.11392 -0.0597,0.0524 -0.0598,0.0524 0.0529,0.28466 0.0529,0.28464 0.0135,0.10256 0.0135,0.10256 0.009,0.0202 0.009,0.0202 0.0119,-0.005 z"
       id="path47618" />
    <path
       style="fill:url(#linearGradient47782);fill-opacity:1;stroke-width:0.0105208"
       d="m 107.79801,138.84625 -0.004,-0.004 -0.0898,-0.0292 -0.0897,-0.0292 -0.069,-0.0163 -0.069,-0.0163 -0.10107,-0.0158 -0.10106,-0.0158 -0.0885,-0.007 -0.0885,-0.007 -0.10984,0.006 -0.10984,0.006 -0.0965,0.019 -0.0965,0.019 -0.0863,0.0341 -0.0864,0.0341 -0.13704,0.0831 -0.13705,0.0832 -0.11206,0.0613 -0.11206,0.0613 -0.20871,0.0931 -0.20874,0.0932 -0.16667,0.0578 -0.16667,0.0577 -0.14752,0.0398 -0.14752,0.0398 -0.14812,0.0287 -0.14811,0.0287 -0.15863,0.019 -0.15863,0.019 -0.18815,0.007 -0.18815,0.007 -0.16234,-0.0106 -0.16233,-0.0106 -0.12428,-0.0198 -0.12426,-0.0199 -5.6e-4,-0.005 -10e-4,-0.006 0.0679,0.0106 0.0679,0.0106 0.1054,0.003 0.1055,0.003 0.17418,-0.009 0.17417,-0.009 0.15106,-0.0226 0.15108,-0.0226 0.11158,-0.025 0.11157,-0.0249 0.12107,-0.0323 0.12105,-0.0323 0.17705,-0.0581 0.17703,-0.0579 0.22885,-0.0956 0.22883,-0.0956 0.19918,-0.10138 0.19918,-0.10138 0.12279,-0.0706 0.1228,-0.0705 0.12994,-0.075 0.12995,-0.075 0.10606,-0.0397 0.10606,-0.0397 0.0963,-0.0248 0.0963,-0.0248 0.054,-0.009 0.054,-0.009 0.004,-0.007 0.004,-0.007 -0.0247,-0.0791 -0.0246,-0.0791 -0.0421,-0.0887 -0.0421,-0.0887 -0.0686,-0.11083 -0.0686,-0.11084 -0.0584,-0.0715 -0.0584,-0.0716 -0.0679,-0.0666 -0.0678,-0.0666 -0.12601,-0.0842 -0.126,-0.0842 -0.0922,-0.0378 -0.0921,-0.0379 -0.0993,-0.023 -0.0993,-0.023 -0.0918,-0.007 -0.092,-0.007 -0.10561,0.006 -0.10562,0.006 -0.11497,0.0222 -0.11487,0.0221 -0.11996,0.0376 -0.11996,0.0376 -0.16054,0.0723 -0.16057,0.0723 -0.11775,0.0671 -0.11775,0.0671 -0.14069,0.0927 -0.14069,0.0927 -0.10085,0.0765 -0.10084,0.0766 -0.11791,0.0954 -0.11788,0.0953 -0.14442,0.12939 -0.14441,0.12937 -0.16636,0.1621 -0.16637,0.16209 -0.11416,0.0956 -0.11413,0.0956 -0.11084,0.0775 -0.11084,0.0775 -0.13234,0.08 -0.13232,0.08 -0.0958,0.0495 -0.0958,0.0494 -0.003,0.007 -0.004,0.007 0.0345,0.11001 0.0345,0.11001 0.0678,0.16189 0.0677,0.1619 0.0667,0.12052 0.0668,0.12053 0.0777,0.1126 0.0778,0.11261 0.0742,0.0879 0.0742,0.0879 0.0737,0.074 0.0737,0.074 0.18734,0.13211 0.18735,0.1321 0.13758,0.0608 0.13758,0.0609 0.0865,0.0198 0.0865,0.0198 0.0989,0.0119 0.099,0.0118 0.15633,-0.006 0.15634,-0.006 0.1064,-0.0162 0.1065,-0.0163 0.13764,-0.0369 0.13764,-0.0368 0.12812,-0.0522 0.12806,-0.0522 0.10939,-0.0581 0.10939,-0.0582 0.12571,-0.0838 0.12573,-0.0839 0.14203,-0.12042 0.14205,-0.12041 0.10362,-0.10706 0.10361,-0.10705 0.0928,-0.11249 0.0928,-0.11261 0.0768,-0.10445 0.0769,-0.10445 0.11978,-0.19222 0.11977,-0.19221 0.0891,-0.17229 0.0891,-0.17231 0.0225,-0.006 0.0225,-0.006 0.11533,-0.005 0.11534,-0.005 0.085,0.0118 0.085,0.0118 0.0754,0.0191 0.0754,0.0191 0.0371,0.0122 0.0371,0.0122 0.0979,-0.10091 0.0979,-0.1009 0.0369,-0.0339 0.037,-0.0339 0.006,-0.009 0.006,-0.01 -0.004,-0.004 z"
       id="path47634" />
    <path
       style="fill:url(#linearGradient47780);fill-opacity:1;stroke-width:0.0108572"
       d="m 186.25315,65.075311 0.006,-4.62e-4 0.0904,-0.03561 0.0904,-0.03574 0.0659,-0.03213 0.0659,-0.03213 0.0916,-0.05442 0.0916,-0.05442 0.0757,-0.05326 0.0757,-0.05325 0.0855,-0.08107 0.0856,-0.07977 0.0668,-0.08212 0.0668,-0.08212 0.0497,-0.08582 0.0497,-0.08582 0.0614,-0.160317 0.0614,-0.16051 0.054,-0.125366 0.054,-0.125359 0.11326,-0.217253 0.11318,-0.217502 0.10028,-0.160228 0.1004,-0.16015 0.0956,-0.131618 0.0956,-0.131608 0.10273,-0.125111 0.10273,-0.125109 0.11693,-0.124948 0.11694,-0.124821 0.14851,-0.133539 0.14848,-0.133532 0.13789,-0.100354 0.1379,-0.100236 0.11257,-0.06919 0.11255,-0.06905 0.003,0.0041 0.003,0.0041 -0.0608,0.03918 -0.0608,0.03951 -0.0871,0.0692 -0.0871,0.0692 -0.13512,0.127732 -0.13512,0.127738 -0.10883,0.122229 -0.10874,0.122814 -0.0755,0.09479 -0.0755,0.09407 -0.0789,0.108153 -0.0788,0.10814 -0.10861,0.167293 -0.10862,0.167272 -0.12812,0.233033 -0.12814,0.232879 -0.10063,0.217676 -0.10073,0.217501 -0.0571,0.141011 -0.0571,0.141011 -0.0604,0.148709 -0.0604,0.148835 -0.0622,0.104466 -0.0621,0.10443 -0.0632,0.08552 -0.063,0.08552 -0.0381,0.04409 -0.038,0.044 9.3e-4,0.0066 9.9e-4,0.0067 0.0673,0.04855 0.0673,0.04855 0.0875,0.04454 0.0875,0.04455 0.12224,0.04354 0.12225,0.04353 0.09,0.01694 0.09,0.01616 0.0949,0.008 0.095,0.008 0.15322,-0.01748 0.15269,-0.01747 0.0975,-0.03173 0.0975,-0.03173 0.0944,-0.04907 0.0944,-0.04907 0.0789,-0.05491 0.0788,-0.05557 0.0825,-0.07441 0.0825,-0.07442 0.0802,-0.09411 0.08,-0.09484 0.0748,-0.110741 0.0748,-0.110752 0.0866,-0.167747 0.0866,-0.167703 0.0549,-0.135495 0.0549,-0.135495 0.0579,-0.170893 0.0579,-0.170925 0.0363,-0.130028 0.0363,-0.129245 0.0388,-0.15731 0.0388,-0.157259 0.0396,-0.203006 0.0394,-0.20304 0.0376,-0.244446 0.0377,-0.24439 0.0353,-0.155123 0.0353,-0.15503 0.0432,-0.138604 0.0432,-0.138639 0.0597,-0.154431 0.0598,-0.154704 0.0481,-0.104703 0.0481,-0.104702 -9.3e-4,-0.0066 -9.3e-4,-0.0066 -0.0946,-0.06556 -0.0947,-0.06556 -0.15201,-0.08413 -0.15201,-0.08414 -0.12632,-0.05115 -0.12622,-0.05062 -0.13081,-0.0394 -0.13082,-0.0394 -0.11291,-0.0221 -0.11299,-0.02201 -0.10406,-0.0092 -0.10406,-0.0092 -0.23104,0.02162 -0.23106,0.02163 -0.14821,0.04248 -0.1482,0.04246 -0.0819,0.04405 -0.0819,0.04405 -0.0875,0.05667 -0.0876,0.05587 -0.12332,0.110941 -0.12336,0.110942 -0.0764,0.08583 -0.0764,0.08582 -0.0892,0.124376 -0.0891,0.124376 -0.0727,0.12863 -0.0726,0.128577 -0.0537,0.121888 -0.0537,0.12189 -0.0519,0.15351 -0.0519,0.153336 -0.0429,0.19412 -0.0429,0.194135 -0.0195,0.157088 -0.0195,0.157117 -0.008,0.154347 -0.008,0.154381 2.9e-4,0.136873 2.7e-4,0.136868 0.0194,0.237055 0.0194,0.237027 0.0324,0.200057 0.0324,0.20001 -0.0144,0.02035 -0.0144,0.0204 -0.0902,0.08399 -0.0903,0.08399 -0.076,0.04814 -0.076,0.04814 -0.0729,0.03399 -0.0727,0.03397 -0.0375,0.01262 -0.0375,0.01262 -0.0187,0.148619 -0.0187,0.148267 -0.009,0.05423 -0.009,0.05424 8.6e-4,0.0095 8.6e-4,0.0095 0.006,-4.62e-4 z"
       id="path47636" />
    <path
       style="fill:url(#linearGradient47724);fill-opacity:1;stroke-width:0.0105206"
       d="m 128.70753,165.08901 0.007,-8.4e-4 0.0864,-0.0389 0.0864,-0.0389 0.0625,-0.0346 0.0627,-0.0345 0.0871,-0.0568 0.0871,-0.0569 0.0719,-0.0556 0.0719,-0.0555 0.0808,-0.0793 0.0808,-0.0793 0.0624,-0.0806 0.0626,-0.0807 0.046,-0.0848 0.046,-0.0848 0.0553,-0.15723 0.0553,-0.15724 0.0486,-0.12369 0.0486,-0.12369 0.10384,-0.21401 0.10373,-0.21406 0.093,-0.15806 0.093,-0.15808 0.089,-0.13136 0.0889,-0.13133 0.0961,-0.12323 0.0961,-0.12321 0.11006,-0.12289 0.11017,-0.12288 0.14017,-0.13371 0.14019,-0.1337 0.1306,-0.10327 0.13059,-0.10315 0.10718,-0.0697 0.10728,-0.0697 0.005,0.006 0.005,0.006 -0.0579,0.0385 -0.0579,0.0384 -0.0825,0.0699 -0.0825,0.0698 -0.1276,0.12647 -0.12761,0.12647 -0.10228,0.12053 -0.10218,0.12053 -0.0706,0.0952 -0.0706,0.0952 -0.0732,0.1074 -0.0733,0.10741 -0.10073,0.16537 -0.10074,0.16536 -0.11782,0.2296 -0.11782,0.2296 -0.0918,0.21358 -0.0918,0.2136 -0.051,0.13819 -0.0511,0.1382 -0.0544,0.14626 -0.0544,0.14628 -0.0573,0.10291 -0.0574,0.10293 -0.0589,0.0848 -0.0589,0.0848 -0.0357,0.0438 -0.0356,0.044 8.2e-4,0.009 8.5e-4,0.01 0.0667,0.044 0.0667,0.044 0.0858,0.0393 0.0858,0.0393 0.11953,0.0381 0.11953,0.0382 0.088,0.0149 0.088,0.0149 0.0922,0.005 0.0922,0.005 0.14736,-0.0218 0.14737,-0.0219 0.0935,-0.034 0.0935,-0.034 0.0899,-0.0502 0.0899,-0.0502 0.0746,-0.0575 0.0746,-0.0575 0.0777,-0.0763 0.0777,-0.0763 0.0746,-0.0955 0.0746,-0.0955 0.0692,-0.11072 0.0692,-0.11071 0.0792,-0.16526 0.0791,-0.16527 0.0497,-0.1319 0.0497,-0.1319 0.0514,-0.16733 0.0515,-0.16735 0.0314,-0.12743 0.0314,-0.12742 0.0332,-0.15352 0.0332,-0.15351 0.0326,-0.19785 0.0327,-0.19785 0.0297,-0.23794 0.0299,-0.23789 0.0298,-0.15124 0.0298,-0.15122 0.0382,-0.13518 0.0382,-0.13517 0.0541,-0.15135 0.0541,-0.15136 0.0438,-0.10327 0.0437,-0.10316 -8.8e-4,-0.008 -8.6e-4,-0.008 -0.093,-0.0609 -0.093,-0.0609 -0.14968,-0.0777 -0.1497,-0.0777 -0.12364,-0.0475 -0.12364,-0.0475 -0.12762,-0.033 -0.12761,-0.033 -0.11006,-0.0168 -0.11006,-0.0168 -0.10117,-0.007 -0.10118,-0.007 -0.2234,0.0264 -0.2234,0.0264 -0.14218,0.0472 -0.14217,0.0473 -0.0783,0.0441 -0.0783,0.044 -0.083,0.0584 -0.083,0.0584 -0.11649,0.11107 -0.1165,0.11107 -0.0719,0.0852 -0.0719,0.0853 -0.0833,0.12233 -0.0833,0.12232 -0.0667,0.12749 -0.0667,0.12757 -0.0488,0.11938 -0.0488,0.11924 -0.0461,0.1501 -0.046,0.15009 -0.0363,0.18936 -0.0363,0.18927 -0.0143,0.15284 -0.0143,0.15283 -0.003,0.14974 -0.003,0.14973 0.005,0.13263 0.005,0.13258 0.0237,0.22925 0.0237,0.22927 0.0361,0.19282 0.0361,0.19282 -0.0132,0.02 -0.0131,0.0199 -0.0853,0.0828 -0.0853,0.0829 -0.0722,0.049 -0.0722,0.0491 -0.0694,0.0368 -0.0695,0.0369 -0.0358,0.0157 -0.0358,0.0158 -0.0141,0.14428 -0.0141,0.14431 -0.008,0.0513 -0.008,0.0513 7.6e-4,0.012 7.7e-4,0.012 0.007,-8.5e-4 z"
       id="path47694" />
  </g>
</svg>
