<?xml version="1.0" encoding="UTF-8" standalone="no"?>
<!-- Created with Inkscape (http://www.inkscape.org/) -->

<svg
   width="9.7883396mm"
   height="8.6729803mm"
   viewBox="0 0 9.7883396 8.6729803"
   version="1.1"
   id="svg65337"
   inkscape:version="1.2.2 (732a01da63, 2022-12-09, custom)"
   sodipodi:docname="ol.svg"
   xmlns:inkscape="http://www.inkscape.org/namespaces/inkscape"
   xmlns:sodipodi="http://sodipodi.sourceforge.net/DTD/sodipodi-0.dtd"
   xmlns:xlink="http://www.w3.org/1999/xlink"
   xmlns="http://www.w3.org/2000/svg"
   xmlns:svg="http://www.w3.org/2000/svg">
  <sodipodi:namedview
     id="namedview65339"
     pagecolor="#ffffff"
     bordercolor="#111111"
     borderopacity="1"
     inkscape:showpageshadow="0"
     inkscape:pageopacity="0"
     inkscape:pagecheckerboard="1"
     inkscape:deskcolor="#d1d1d1"
     inkscape:document-units="mm"
     showgrid="false"
     inkscape:zoom="2.8825513"
     inkscape:cx="23.069841"
     inkscape:cy="25.498245"
     inkscape:window-width="1536"
     inkscape:window-height="800"
     inkscape:window-x="0"
     inkscape:window-y="0"
     inkscape:window-maximized="1"
     inkscape:current-layer="layer1" />
  <defs
     id="defs65334">
    <linearGradient
       inkscape:collect="always"
       xlink:href="#linearGradient1047"
       id="linearGradient8755"
       gradientUnits="userSpaceOnUse"
       gradientTransform="matrix(-0.01447862,0.01161192,-0.02270048,-0.00846505,115.83362,124.31273)"
       x1="122.59455"
       y1="578.54382"
       x2="439.49298"
       y2="25.429077" />
    <linearGradient
       inkscape:collect="always"
       id="linearGradient1047">
      <stop
         style="stop-color:#000000;stop-opacity:1;"
         offset="0"
         id="stop1041" />
      <stop
         style="stop-color:#078c00;stop-opacity:1;"
         offset="0.66122651"
         id="stop1043" />
      <stop
         style="stop-color:#00ff17;stop-opacity:0;"
         offset="1"
         id="stop1045" />
    </linearGradient>
  </defs>
  <g
     inkscape:label="Capa 1"
     inkscape:groupmode="layer"
     id="layer1"
     transform="translate(-100.07411,-120.73702)">
    <path
       style="fill:url(#linearGradient8755);fill-opacity:1;stroke-width:0.0224583"
       d="m 100.89163,120.74332 0.0194,0.007 0.23834,0.12841 0.23831,0.1284 0.16698,0.10045 0.16698,0.10045 0.22433,0.15001 0.2243,0.15001 0.17746,0.13374 0.17745,0.13374 0.18469,0.17024 0.18469,0.17025 0.12543,0.15426 0.12542,0.15425 0.0679,0.14327 0.0679,0.14326 0.0335,0.23692 0.0335,0.23692 0.0439,0.19141 0.0439,0.19141 0.13629,0.34986 0.13629,0.34985 0.15234,0.2741 0.15235,0.27407 0.16383,0.23894 0.16382,0.23892 0.19364,0.23641 0.19365,0.23642 0.23801,0.24937 0.23801,0.24939 0.32365,0.2908 0.32365,0.29079 0.32054,0.24588 0.32051,0.24585 0.27651,0.1844 0.27651,0.1844 0.0162,-0.001 0.0162,-0.001 -0.14914,-0.10077 -0.14914,-0.10078 -0.19847,-0.16092 -0.19847,-0.16093 -0.29008,-0.27029 -0.29008,-0.27027 -0.21506,-0.23901 -0.21507,-0.23902 -0.13769,-0.1792 -0.13767,-0.17921 -0.13571,-0.19607 -0.13571,-0.19603 -0.17034,-0.29004 -0.17035,-0.29006 -0.16662,-0.38154 -0.16686,-0.38156 -0.0978,-0.33783 -0.0978,-0.33783 -0.0388,-0.21074 -0.0388,-0.21074 -0.0409,-0.22327 -0.0409,-0.22329 -0.0891,-0.17533 -0.0891,-0.17534 -0.10994,-0.15564 -0.10995,-0.15562 -0.0735,-0.0857 -0.0735,-0.0857 0.0106,-0.01 0.0106,-0.01 0.25018,0.0125 0.25018,0.0125 0.30652,0.0363 0.30653,0.0363 0.41203,0.0701 0.41205,0.0701 0.29136,0.0668 0.29135,0.0669 0.29572,0.0829 0.29577,0.0828 0.44662,0.16653 0.44664,0.16654 0.26509,0.12929 0.2651,0.12929 0.23974,0.14508 0.23972,0.14508 0.18441,0.13877 0.18441,0.13876 0.17728,0.16374 0.17728,0.16372 0.1507,0.18335 0.15071,0.18334 0.11976,0.19602 0.11975,0.19602 0.10339,0.26938 0.1034,0.26939 0.039,0.20195 0.039,0.20193 0.0131,0.24518 0.013,0.24515 -0.0146,0.17926 -0.0146,0.17926 -0.0327,0.21138 -0.0327,0.21136 -0.074,0.26274 -0.074,0.26276 -0.11888,0.30687 -0.11888,0.30688 -0.0415,0.20546 -0.0415,0.20546 -4.5e-4,0.19471 -4.4e-4,0.1947 0.0339,0.22874 0.0339,0.22874 0.0455,0.16277 0.0455,0.16276 -0.0106,0.009 -0.0106,0.009 -0.34801,-0.018 -0.34799,-0.0181 -0.54274,-0.0524 -0.54277,-0.0524 -0.43361,-0.0633 -0.43359,-0.0633 -0.43299,-0.0838 -0.43298,-0.0837 -0.36259,-0.0859 -0.36252,-0.0859 -0.32531,-0.0896 -0.32544,-0.0896 -0.68255,-0.2451 -0.68254,-0.2451 -0.40704,-0.19174 -0.40703,-0.19172 -0.208,-0.12646 -0.20802,-0.12646 -0.20996,-0.14797 -0.20995,-0.14798 -0.26891,-0.24157 -0.26888,-0.24155 -0.15075,-0.16858 -0.15076,-0.16859 -0.15358,-0.2229 -0.15358,-0.22292 -0.0965,-0.21313 -0.0965,-0.21315 -0.0474,-0.18637 -0.0474,-0.18637 -0.0109,-0.21967 -0.0109,-0.21965 0.0541,-0.25639 0.0541,-0.25639 0.09,-0.19299 0.09,-0.19298 0.12389,-0.17824 0.12389,-0.17826 0.13189,-0.15114 0.1319,-0.15114 0.28136,-0.24501 0.28137,-0.24502 0.28548,-0.1915 0.28548,-0.19152 -0.0246,-0.0362 -0.0246,-0.0362 -0.19545,-0.17863 -0.19544,-0.17864 -0.18429,-0.12657 -0.18428,-0.12656 -0.1865,-0.10961 -0.1865,-0.1096 -0.0993,-0.0526 -0.0993,-0.0525 0.0842,-0.18247 0.0842,-0.18244 0.022,-0.0672 0.022,-0.0672 0.0155,-0.0115 0.0155,-0.0115 0.0194,0.007 z"
       id="path8211" />
  </g>
</svg>
