<?xml version="1.0" encoding="UTF-8" standalone="no"?>
<!-- Created with Inkscape (http://www.inkscape.org/) -->

<svg
   width="210mm"
   height="297mm"
   viewBox="0 0 210 297"
   version="1.1"
   id="svg2488"
   inkscape:version="1.2.2 (732a01da63, 2022-12-09, custom)"
   sodipodi:docname="ramitas"
   xmlns:inkscape="http://www.inkscape.org/namespaces/inkscape"
   xmlns:sodipodi="http://sodipodi.sourceforge.net/DTD/sodipodi-0.dtd"
   xmlns="http://www.w3.org/2000/svg"
   xmlns:svg="http://www.w3.org/2000/svg">
  <sodipodi:namedview
     id="namedview2490"
     pagecolor="#ffffff"
     bordercolor="#111111"
     borderopacity="1"
     inkscape:showpageshadow="0"
     inkscape:pageopacity="0"
     inkscape:pagecheckerboard="1"
     inkscape:deskcolor="#d1d1d1"
     inkscape:document-units="mm"
     showgrid="false"
     inkscape:zoom="0.70199214"
     inkscape:cx="397.44035"
     inkscape:cy="334.04932"
     inkscape:window-width="1920"
     inkscape:window-height="1016"
     inkscape:window-x="0"
     inkscape:window-y="0"
     inkscape:window-maximized="1"
     inkscape:current-layer="layer1" />
  <defs
     id="defs2485" />
  <g
     inkscape:label="Capa 1"
     inkscape:groupmode="layer"
     id="layer1">
    <path
       id="path2414"
       style="fill:#000000;stroke-width:0.264583"
       d="m 128.32375,1.33773 c -2.71169,-0.048952 -5.53571,0.8727583 -8.49716,2.7615886 -8.2176,5.2412138 -16.9306,6.9042874 -26.86502,5.1273358 -2.513688,-0.449614 -3.713891,-0.592408 -3.023072,-0.359151 10.455792,3.5302706 20.995432,2.6218636 31.043582,-2.6763229 5.37727,-2.8353181 7.94319,-2.7755091 12.03441,0.2811198 3.60926,2.6965251 3.6009,2.7798371 -0.54054,5.5014727 -3.9613,2.603248 -6.92927,4.903678 -15.38046,11.920719 -6.5089,5.404363 -8.36814,6.471708 -13.28084,7.626408 C 92.944576,34.075827 86.066584,31.722484 72.982427,20.971157 60.108972,10.392976 54.423947,8.3539852 43.960943,10.56249 c -2.167199,0.45744 -4.161318,0.696086 -5.450313,0.652156 -2.032847,-0.0692 -2.032453,-0.06936 0.07441,0.154513 1.636854,0.173928 2.995111,0.07319 6.089034,-0.452686 9.311386,-1.5826586 15.398314,0.926392 26.429394,10.894942 3.819636,3.451718 3.773094,3.341373 1.353406,3.197738 -5.745195,-0.34103 -12.674,1.275012 -17.805632,4.153235 -7.954392,4.461421 -9.137337,4.954981 -12.490193,5.206917 -1.72019,0.129253 -1.720168,0.12896 -0.258382,0.19482 3.008284,0.135511 5.661894,-0.720726 11.091312,-3.579109 10.033444,-5.28224 20.997019,-6.017137 26.846424,-1.799891 6.219056,4.483783 13.223694,6.62895 20.245277,6.200139 2.5084,-0.153176 2.51657,-0.13215 0.45475,1.168404 C 86.59538,45.346924 72.187228,48.665477 53.301975,47.43259 40.892097,46.622443 35.591098,47.32293 30.402081,50.459796 c -2.286005,1.381941 -6.1407,4.89275 -5.48132,4.99246 0.07196,0.01088 0.467407,-0.380551 0.879017,-0.870231 5.079255,-6.042577 11.966951,-7.3839 28.8432,-5.616195 11.115312,1.164288 18.383662,0.746126 28.302665,-1.627807 1.847249,-0.442104 3.434617,-0.791897 3.526917,-0.778247 0.29842,0.04509 -2.464942,3.179139 -4.476213,5.076692 -4.916385,4.638484 -9.804841,7.563142 -19.115629,11.436511 -4.328669,1.800774 -9.885466,4.322516 -9.912056,4.498434 -0.01114,0.07373 0.851881,-0.257852 1.917712,-0.736906 1.065829,-0.479035 3.657413,-1.490882 5.758822,-2.248958 15.397477,-5.554476 21.30214,-9.169825 28.112496,-17.21187 1.901128,-2.244944 1.900763,-2.245136 5.763989,-3.907255 7.485539,-3.220582 11.260939,-5.575456 23.023399,-14.363464 9.07878,-6.78295 9.07834,-6.78325 9.02374,-5.217253 -0.1049,3.010868 0.28208,5.401468 1.80712,11.168828 0.42587,1.610081 -2.16037,3.387712 -8.35039,5.739701 -7.21195,2.740256 -10.23717,5.322979 -13.38316,11.425659 -1.57778,3.060746 -1.42631,3.111999 0.34881,0.117822 3.55937,-6.003691 5.87888,-7.752929 13.74645,-10.365258 4.69153,-1.557772 5.84817,-2.045255 7.429,-3.131075 1.18052,-0.810826 1.20738,-0.773808 1.73788,2.376082 0.88823,5.273777 -0.0757,8.635001 -4.29844,14.986682 -2.7799,4.181359 -3.91098,6.418797 -4.40645,8.716781 -0.347,1.609075 -0.34449,1.627254 0.0532,0.409277 0.96383,-2.951693 1.33823,-3.550068 6.54792,-10.469128 1.59613,-2.119823 1.59613,-2.119915 1.97043,-0.906405 0.22065,0.713859 1.4048,2.580345 2.87786,4.535124 1.41357,1.875848 2.8065,4.059979 3.20032,5.017264 0.85694,2.083133 0.96826,1.863084 0.18242,-0.360701 -0.31807,-0.900166 -1.55188,-3.053404 -2.74195,-4.784721 -3.07313,-4.471047 -3.44726,-5.924702 -2.27532,-8.845972 1.43431,-3.575415 1.412,-7.458672 -0.0879,-15.101403 -2.28303,-11.633566 -1.39965,-14.671208 5.41879,-18.62677 13.49673,-7.8298411 25.10603,-8.8594998 40.99957,-3.635437 2.80602,0.922316 7.67521,2.890093 11.68507,4.634342 -2.03882,1.862289 -4.95818,2.486933 -10.27896,3.234945 -7.58998,1.067024 -11.67105,1.997693 -14.87609,4.298445 -13.01869,0.968703 -16.54288,2.237256 -16.95969,6.074565 -0.0496,0.457635 -0.0129,0.444661 0.23978,-0.08475 1.80098,-3.773444 3.94116,-4.430677 14.93914,-4.486548 -1.67841,1.636364 -3.23971,3.800272 -5.15783,6.782015 -2.70965,4.212202 -4.73449,6.382656 -7.05486,7.563879 -1.7624,0.897188 -1.5968,1.086764 0.24546,0.28112 2.59869,-1.13644 3.40896,-1.835195 8.35195,-7.204211 4.14836,-4.505924 4.94812,-5.277746 6.30762,-6.085417 1.13247,-0.672794 2.06221,-1.124321 2.79518,-1.37666 0.59575,-0.0044 1.24505,-0.0072 1.81746,-0.0124 0.70705,0.755417 -0.61777,3.36283 -4.02766,7.361308 -3.09374,3.627748 -3.47014,4.154212 -3.94033,5.508708 -0.78951,2.274275 -0.71535,3.029281 0.092,0.93586 0.78634,-2.039006 2.68497,-4.444032 4.82297,-6.109705 2.93266,-2.28479 5.02285,-5.576161 4.90461,-7.709607 6.40638,-0.07219 11.29186,-0.207819 15.08331,-0.44545 -1.32853,2.747834 -6.9048,10.926859 -10.60297,15.403711 -6.90132,8.354464 -11.04178,11.872393 -27.15596,23.07301 -9.74245,6.771757 -14.46362,10.346887 -18.17874,13.766601 -2.18383,2.010174 -2.18406,2.009959 -4.27157,1.91823 -8.86891,-0.389673 -12.10636,1.097976 -20.73104,9.523966 -2.69806,2.635924 -6.191398,6.04079 -7.763345,7.566463 -5.452269,5.291793 -5.537325,5.346253 5.105625,-3.273185 12.23409,-9.908059 13.49932,-10.562242 19.85409,-10.262423 2.29683,0.10836 2.32051,-0.04731 -0.53123,3.489193 -2.50376,3.10496 -3.31944,4.323765 -5.08083,7.591268 -2.64196,4.901055 -4.18294,9.70769 -5.10098,15.91013 -0.30482,2.05949 -0.29233,2.04513 -2.14716,2.42621 -7.94081,1.6315 -11.806974,6.34311 -11.793074,14.37174 0.01686,9.74674 -3.252033,17.99218 -10.079488,25.42428 -1.727531,1.88053 -2.491259,2.81754 -1.923913,2.35955 8.586937,-6.93189 13.472037,-16.31523 14.388785,-27.63759 0.4906,-6.05915 1.91711,-8.19269 6.69106,-10.00662 4.21155,-1.60026 4.27754,-1.54859 4.35374,3.40651 0.0729,4.73957 0.42236,8.47879 1.81281,19.37504 1.0709,8.39202 0.97526,10.53357 -0.68471,15.29933 -3.67295,10.54497 -9.34794,15.08785 -25.439273,20.36568 -15.832185,5.19282 -20.601866,8.898 -24.348902,18.91357 -0.776125,2.07452 -1.64413,3.88516 -2.372465,4.94957 -1.148583,1.67862 -1.148303,1.67889 0.170533,0.0207 1.024619,-1.28829 1.667684,-2.4892 2.883028,-5.38262 3.657683,-8.70793 9.040039,-12.49991 23.369633,-16.46462 4.961779,-1.37283 4.843456,-1.39271 3.424597,0.57257 -3.368878,4.66629 -5.720378,11.38095 -6.043042,17.25579 -0.500165,9.1064 -0.718304,10.36954 -2.303735,13.33459 -0.813417,1.52123 -0.813668,1.52147 0.02584,0.32298 1.727674,-2.46644 2.427848,-5.16542 2.926953,-11.28097 0.922315,-11.30138 6.181821,-20.9494 12.878284,-23.62491 7.119649,-2.84458 12.686879,-7.60651 16.090489,-13.76298 1.21592,-2.19933 1.23841,-2.19485 1.23041,0.24287 -0.0566,16.48584 -4.98307,30.42701 -16.151462,45.70574 -7.338975,10.03996 -9.590376,14.88972 -9.725504,20.95169 -0.05953,2.67059 0.836601,7.80653 1.274341,7.30343 0.04776,-0.0549 -0.07045,-0.59869 -0.263033,-1.20871 -2.376268,-7.52761 0.18509,-14.06023 10.727508,-27.35647 6.94362,-8.75738 10.48916,-15.11615 13.80484,-24.76128 0.61749,-1.79623 1.17273,-3.3237 1.23403,-3.3941 0.19811,-0.22769 1.36112,3.78517 1.88413,6.50037 1.27849,6.63717 1.1255,12.33201 -0.59842,22.2679 -0.80146,4.61928 -1.65247,10.66137 -1.51825,10.77815 0.0563,0.0489 0.23893,-0.85732 0.40618,-2.01383 0.16725,-1.1565 0.70248,-3.8866 1.18959,-6.06681 3.56915,-15.97484 3.68486,-22.89719 0.54932,-32.9582 -0.87529,-2.80855 -0.87559,-2.80874 -0.20671,-6.96081 1.29605,-8.04523 1.3327,-12.49448 0.22324,-27.1353 -0.85631,-11.3004 -0.85634,-11.30023 0.43615,-10.41435 2.48504,1.70321 4.71003,2.6586 10.39575,4.46433 1.58736,0.504 1.70081,3.64057 0.36639,10.12651 -1.55474,7.55672 -0.99675,11.49461 2.46703,17.42271 1.73719,2.97311 1.86101,2.87299 0.28577,-0.23099 -3.15854,-6.22391 -3.39046,-9.11974 -1.37614,-17.16123 1.20115,-4.79524 1.4097,-6.0328 1.341,-7.94939 -0.0513,-1.43124 -0.006,-1.4342 2.93729,-0.19275 4.92761,2.07853 7.24759,4.69447 10.34407,11.66492 2.03843,4.58874 3.32065,6.74375 4.99453,8.39432 1.17208,1.15574 1.18887,1.16353 0.37414,0.17467 -1.97447,-2.39644 -2.27916,-3.03369 -5.32526,-11.14144 -0.93324,-2.48402 -0.933,-2.48408 0.29197,-2.14922 0.72086,0.19659 2.93137,0.19811 5.37125,0.003 2.34137,-0.18713 4.93188,-0.19183 5.95106,-0.0109 2.21783,0.39384 2.09169,0.18204 -0.20671,-0.34726 -0.93036,-0.21427 -3.40919,-0.32767 -5.50871,-0.25167 -5.42179,0.1961 -6.84962,-0.26782 -8.6868,-2.8236 -2.24859,-3.12804 -5.53844,-5.1916 -12.79354,-8.02431 -11.04354,-4.31189 -13.13318,-6.68662 -12.81524,-14.56294 0.62934,-15.59077 5.98604,-25.94114 18.91874,-36.554351 4.35159,-3.571117 16.00543,-11.500931 16.399,-11.158492 0.9875,0.859207 -3.71012,11.093513 -13.22968,28.820973 -6.28167,11.69784 -7.12749,15.37772 -4.09122,17.80408 0.3596,0.28734 0.36819,0.24917 0.0568,-0.24804 -2.25362,-3.59886 -1.63424,-5.73187 4.47518,-15.4187 13.33006,-21.135548 16.64316,-27.453724 16.95659,-32.339107 0.0922,-1.437811 0.0919,-1.438249 2.74867,-3.14141 6.39623,-4.100468 11.45968,-7.796404 15.61145,-11.39517 3.15778,-2.737176 2.87675,-2.763304 3.14554,0.297139 0.12348,1.405963 0.40107,4.078984 0.61702,5.940206 0.83872,7.228632 -4.39103,16.314956 -10.97401,19.06602 -5.66702,2.368285 -9.70973,6.562935 -11.63443,12.071614 -0.33809,0.967668 -0.0833,0.62156 0.98082,-1.332735 2.11648,-3.886809 5.63821,-7.287976 8.92348,-8.617562 1.2276,-0.496818 1.22773,-0.496849 -1.68361,3.082499 -5.2614,6.468628 -6.3311,9.406081 -6.63991,18.229886 -0.067,1.91532 -0.2735,4.574 -0.45837,5.90817 -0.18484,1.33417 -0.26627,2.34561 -0.18087,2.24741 0.26943,-0.30967 0.90972,-4.10288 1.3746,-8.14576 1.08189,-9.408763 3.00614,-13.065461 10.34717,-19.659774 1.47257,-1.322789 3.38987,-3.048002 4.2602,-3.833874 1.85837,-1.677997 6.5593,-6.991084 6.82129,-7.709607 0.30894,-0.847343 0.441,-0.245042 1.85777,8.464082 1.31921,8.109538 2.64511,15.76278 3.51193,20.272143 0.45994,2.3927 0.45785,2.23152 -0.11007,-8.540042 -0.12123,-2.299307 -0.22554,-4.363267 -0.23254,-4.5868 -0.63789,-21.879075 -0.63583,-21.294053 -0.063,-20.467485 3.09851,4.471412 7.68024,9.423391 16.75557,18.109489 8.80617,8.428481 8.97705,8.446817 1.38079,0.145211 -11.70324,-12.789911 -15.27443,-17.439079 -18.1715,-23.656437 -1.00911,-2.16569 -0.23684,-13.371103 1.22525,-17.779277 0.18322,-0.552391 1.32097,-2.285976 2.66754,-4.064868 1.29142,-1.706023 3.15278,-4.290451 4.1367,-5.743319 4.09971,-6.053671 12.12333,-13.02398 14.6761,-14.406355 1.12634,-0.609931 -2.01003,-0.380054 2.09393,-1.422653 0.1119,-0.02843 -6.02962,-5.946934 -7.46879,-6.77633 -6.90233,-3.9778227 -7.62866,-6.5459921 -7.71426,-6.2740354 -0.42864,1.3625435 -0.82068,2.5684378 -1.19889,3.6483558 C 186.44586,7.441501 182.4392,6.0457319 178.81266,5.0780702 175.80085,4.272302 171.99922,3.4779004 170.00699,1.4245464 c 1.14028,1.996723 1.28401,1.9335975 -3.23029,1.423169 -3.96343,-0.4481406 -5.42926,-0.4831785 -9.13174,-0.2175578 -5.55352,0.3984216 -10.43697,1.6752289 -16.16439,4.2266154 -1.90177,0.8471831 -1.88293,0.8506185 -3.19929,-0.5105632 -3.17,-3.277927 -6.47107,-4.9455421 -9.95753,-5.0084798 z"
       sodipodi:nodetypes="ssscssssssscsssscscscscssscssccssscssscccccscccccscscscccsscsccscsssssccssssccssscssssssscsscsssssssssssssssssscssscsscsscsssssccssssscsssscccsccsssssscsccssssscsssscsssssssccsssssssssccccsssss" />
  </g>
</svg>
