<?xml version="1.0" encoding="UTF-8"?>
<svg width="210mm" height="297mm" version="1.1" viewBox="0 0 210 297" xmlns="http://www.w3.org/2000/svg">
<path d="m128.32 1.3377c-2.7117-0.048952-5.5357 0.87276-8.4972 2.7616-8.2176 5.2412-16.931 6.9043-26.865 5.1273-2.5137-0.44961-3.7139-0.59241-3.0231-0.35915 10.456 3.5303 20.995 2.6219 31.044-2.6763 5.3773-2.8353 7.9432-2.7755 12.034 0.28112 3.6093 2.6965 3.6009 2.7798-0.54054 5.5015-3.9613 2.6032-6.9293 4.9037-15.38 11.921-6.5089 5.4044-8.3681 6.4717-13.281 7.6264-10.87 2.5549-17.748 0.20158-30.832-10.55-12.873-10.578-18.558-12.617-29.021-10.409-2.1672 0.45744-4.1613 0.69609-5.4503 0.65216-2.0328-0.0692-2.0325-0.06936 0.07441 0.15451 1.6369 0.17393 2.9951 0.07319 6.089-0.45269 9.3114-1.5827 15.398 0.92639 26.429 10.895 3.8196 3.4517 3.7731 3.3414 1.3534 3.1977-5.7452-0.34103-12.674 1.275-17.806 4.1532-7.9544 4.4614-9.1373 4.955-12.49 5.2069-1.7202 0.12925-1.7202 0.12896-0.25838 0.19482 3.0083 0.13551 5.6619-0.72073 11.091-3.5791 10.033-5.2822 20.997-6.0171 26.846-1.7999 6.2191 4.4838 13.224 6.629 20.245 6.2001 2.5084-0.15318 2.5166-0.13215 0.45475 1.1684-13.945 8.7933-28.353 12.112-47.238 10.879-12.41-0.81015-17.711-0.10966-22.9 3.0272-2.286 1.3819-6.1407 4.8928-5.4813 4.9925 0.07196 0.01088 0.46741-0.38055 0.87902-0.87023 5.0793-6.0426 11.967-7.3839 28.843-5.6162 11.115 1.1643 18.384 0.74613 28.303-1.6278 1.8472-0.4421 3.4346-0.7919 3.5269-0.77825 0.29842 0.04509-2.4649 3.1791-4.4762 5.0767-4.9164 4.6385-9.8048 7.5631-19.116 11.437-4.3287 1.8008-9.8855 4.3225-9.9121 4.4984-0.01114 0.07373 0.85188-0.25785 1.9177-0.73691 1.0658-0.47904 3.6574-1.4909 5.7588-2.249 15.397-5.5545 21.302-9.1698 28.112-17.212 1.9011-2.2449 1.9008-2.2451 5.764-3.9073 7.4855-3.2206 11.261-5.5755 23.023-14.363 9.0788-6.783 9.0783-6.7832 9.0237-5.2173-0.1049 3.0109 0.28208 5.4015 1.8071 11.169 0.42587 1.6101-2.1604 3.3877-8.3504 5.7397-7.212 2.7403-10.237 5.323-13.383 11.426-1.5778 3.0607-1.4263 3.112 0.34881 0.11782 3.5594-6.0037 5.8789-7.7529 13.746-10.365 4.6915-1.5578 5.8482-2.0453 7.429-3.1311 1.1805-0.81083 1.2074-0.77381 1.7379 2.3761 0.88823 5.2738-0.0757 8.635-4.2984 14.987-2.7799 4.1814-3.911 6.4188-4.4064 8.7168-0.347 1.6091-0.34449 1.6273 0.0532 0.40928 0.96383-2.9517 1.3382-3.5501 6.5479-10.469 1.5961-2.1198 1.5961-2.1199 1.9704-0.9064 0.22065 0.71386 1.4048 2.5803 2.8779 4.5351 1.4136 1.8758 2.8065 4.06 3.2003 5.0173 0.85694 2.0831 0.96826 1.8631 0.18242-0.3607-0.31807-0.90017-1.5519-3.0534-2.742-4.7847-3.0731-4.471-3.4473-5.9247-2.2753-8.846 1.4343-3.5754 1.412-7.4587-0.0879-15.101-2.283-11.634-1.3996-14.671 5.4188-18.627 13.497-7.8298 25.106-8.8595 41-3.6354 2.806 0.92232 7.6752 2.8901 11.685 4.6343-2.0388 1.8623-4.9582 2.4869-10.279 3.2349-7.59 1.067-11.671 1.9977-14.876 4.2984-13.019 0.9687-16.543 2.2373-16.96 6.0746-0.0496 0.45764-0.0129 0.44466 0.23978-0.08475 1.801-3.7734 3.9412-4.4307 14.939-4.4865-1.6784 1.6364-3.2397 3.8003-5.1578 6.782-2.7096 4.2122-4.7345 6.3827-7.0549 7.5639-1.7624 0.89719-1.5968 1.0868 0.24546 0.28112 2.5987-1.1364 3.409-1.8352 8.352-7.2042 4.1484-4.5059 4.9481-5.2777 6.3076-6.0854 1.1325-0.67279 2.0622-1.1243 2.7952-1.3767 0.59575-0.0044 1.245-0.0072 1.8175-0.0124 0.70705 0.75542-0.61777 3.3628-4.0277 7.3613-3.0937 3.6277-3.4701 4.1542-3.9403 5.5087-0.78951 2.2743-0.71535 3.0293 0.092 0.93586 0.78634-2.039 2.685-4.444 4.823-6.1097 2.9327-2.2848 5.0228-5.5762 4.9046-7.7096 6.4064-0.07219 11.292-0.20782 15.083-0.44545-1.3285 2.7478-6.9048 10.927-10.603 15.404-6.9013 8.3545-11.042 11.872-27.156 23.073-9.7424 6.7718-14.464 10.347-18.179 13.767-2.1838 2.0102-2.1841 2.01-4.2716 1.9182-8.8689-0.38967-12.106 1.098-20.731 9.524-2.6981 2.6359-6.1914 6.0408-7.7633 7.5665-5.4523 5.2918-5.5373 5.3463 5.1056-3.2732 12.234-9.9081 13.499-10.562 19.854-10.262 2.2968 0.10836 2.3205-0.04731-0.53123 3.4892-2.5038 3.105-3.3194 4.3238-5.0808 7.5913-2.642 4.9011-4.1829 9.7077-5.101 15.91-0.30482 2.0595-0.29233 2.0451-2.1472 2.4262-7.9408 1.6315-11.807 6.3431-11.793 14.372 0.01686 9.7467-3.252 17.992-10.079 25.424-1.7275 1.8805-2.4913 2.8175-1.9239 2.3596 8.5869-6.9319 13.472-16.315 14.389-27.638 0.4906-6.0592 1.9171-8.1927 6.6911-10.007 4.2116-1.6003 4.2775-1.5486 4.3537 3.4065 0.0729 4.7396 0.42236 8.4788 1.8128 19.375 1.0709 8.392 0.97526 10.534-0.68471 15.299-3.673 10.545-9.3479 15.088-25.439 20.366-15.832 5.1928-20.602 8.898-24.349 18.914-0.77612 2.0745-1.6441 3.8852-2.3725 4.9496-1.1486 1.6786-1.1483 1.6789 0.17053 0.0207 1.0246-1.2883 1.6677-2.4892 2.883-5.3826 3.6577-8.7079 9.04-12.5 23.37-16.465 4.9618-1.3728 4.8435-1.3927 3.4246 0.57257-3.3689 4.6663-5.7204 11.381-6.043 17.256-0.50016 9.1064-0.7183 10.37-2.3037 13.335-0.81342 1.5212-0.81367 1.5215 0.02584 0.32298 1.7277-2.4664 2.4278-5.1654 2.927-11.281 0.92232-11.301 6.1818-20.949 12.878-23.625 7.1196-2.8446 12.687-7.6065 16.09-13.763 1.2159-2.1993 1.2384-2.1948 1.2304 0.24287-0.0566 16.486-4.9831 30.427-16.151 45.706-7.339 10.04-9.5904 14.89-9.7255 20.952-0.05953 2.6706 0.8366 7.8065 1.2743 7.3034 0.04776-0.0549-0.07045-0.59869-0.26303-1.2087-2.3763-7.5276 0.18509-14.06 10.728-27.356 6.9436-8.7574 10.489-15.116 13.805-24.761 0.61749-1.7962 1.1727-3.3237 1.234-3.3941 0.19811-0.22769 1.3611 3.7852 1.8841 6.5004 1.2785 6.6372 1.1255 12.332-0.59842 22.268-0.80146 4.6193-1.6525 10.661-1.5182 10.778 0.0563 0.0489 0.23893-0.85732 0.40618-2.0138 0.16725-1.1565 0.70248-3.8866 1.1896-6.0668 3.5692-15.975 3.6849-22.897 0.54932-32.958-0.87529-2.8086-0.87559-2.8087-0.20671-6.9608 1.296-8.0452 1.3327-12.494 0.22324-27.135-0.85631-11.3-0.85634-11.3 0.43615-10.414 2.485 1.7032 4.71 2.6586 10.396 4.4643 1.5874 0.504 1.7008 3.6406 0.36639 10.127-1.5547 7.5567-0.99675 11.495 2.467 17.423 1.7372 2.9731 1.861 2.873 0.28577-0.23099-3.1585-6.2239-3.3905-9.1197-1.3761-17.161 1.2012-4.7952 1.4097-6.0328 1.341-7.9494-0.0513-1.4312-6e-3 -1.4342 2.9373-0.19275 4.9276 2.0785 7.2476 4.6945 10.344 11.665 2.0384 4.5887 3.3206 6.7438 4.9945 8.3943 1.1721 1.1557 1.1889 1.1635 0.37414 0.17467-1.9745-2.3964-2.2792-3.0337-5.3253-11.141-0.93324-2.484-0.933-2.4841 0.29197-2.1492 0.72086 0.19659 2.9314 0.19811 5.3712 3e-3 2.3414-0.18713 4.9319-0.19183 5.9511-0.0109 2.2178 0.39384 2.0917 0.18204-0.20671-0.34726-0.93036-0.21427-3.4092-0.32767-5.5087-0.25167-5.4218 0.1961-6.8496-0.26782-8.6868-2.8236-2.2486-3.128-5.5384-5.1916-12.794-8.0243-11.044-4.3119-13.133-6.6866-12.815-14.563 0.62934-15.591 5.986-25.941 18.919-36.554 4.3516-3.5711 16.005-11.501 16.399-11.158 0.9875 0.85921-3.7101 11.094-13.23 28.821-6.2817 11.698-7.1275 15.378-4.0912 17.804 0.3596 0.28734 0.36819 0.24917 0.0568-0.24804-2.2536-3.5989-1.6342-5.7319 4.4752-15.419 13.33-21.136 16.643-27.454 16.957-32.339 0.0922-1.4378 0.0919-1.4382 2.7487-3.1414 6.3962-4.1005 11.46-7.7964 15.611-11.395 3.1578-2.7372 2.8768-2.7633 3.1455 0.29714 0.12348 1.406 0.40107 4.079 0.61702 5.9402 0.83872 7.2286-4.391 16.315-10.974 19.066-5.667 2.3683-9.7097 6.5629-11.634 12.072-0.33809 0.96767-0.0833 0.62156 0.98082-1.3327 2.1165-3.8868 5.6382-7.288 8.9235-8.6176 1.2276-0.49682 1.2277-0.49685-1.6836 3.0825-5.2614 6.4686-6.3311 9.4061-6.6399 18.23-0.067 1.9153-0.2735 4.574-0.45837 5.9082-0.18484 1.3342-0.26627 2.3456-0.18087 2.2474 0.26943-0.30967 0.90972-4.1029 1.3746-8.1458 1.0819-9.4088 3.0061-13.065 10.347-19.66 1.4726-1.3228 3.3899-3.048 4.2602-3.8339 1.8584-1.678 6.5593-6.9911 6.8213-7.7096 0.30894-0.84734 0.441-0.24504 1.8578 8.4641 1.3192 8.1095 2.6451 15.763 3.5119 20.272 0.45994 2.3927 0.45785 2.2315-0.11007-8.54-0.12123-2.2993-0.22554-4.3633-0.23254-4.5868-0.63789-21.879-0.63583-21.294-0.063-20.467 3.0985 4.4714 7.6802 9.4234 16.756 18.109 8.8062 8.4285 8.977 8.4468 1.3808 0.14521-11.703-12.79-15.274-17.439-18.172-23.656-1.0091-2.1657-0.23684-13.371 1.2252-17.779 0.18322-0.55239 1.321-2.286 2.6675-4.0649 1.2914-1.706 3.1528-4.2905 4.1367-5.7433 4.0997-6.0537 12.123-13.024 14.676-14.406 1.1263-0.60993-2.01-0.38005 2.0939-1.4227 0.1119-0.02843-6.0296-5.9469-7.4688-6.7763-6.9023-3.9778-7.6287-6.546-7.7143-6.274-0.42864 1.3625-0.82068 2.5684-1.1989 3.6484-6.3065-2.5359-10.313-3.9317-13.94-4.8993-3.0118-0.80577-6.8134-1.6002-8.8057-3.6535 1.1403 1.9967 1.284 1.9336-3.2303 1.4232-3.9634-0.44814-5.4293-0.48318-9.1317-0.21756-5.5535 0.39842-10.437 1.6752-16.164 4.2266-1.9018 0.84718-1.8829 0.85062-3.1993-0.51056-3.17-3.2779-6.4711-4.9455-9.9575-5.0085z" stroke-width=".26458"/>
</svg>
