<?xml version="1.0" encoding="UTF-8" standalone="no"?>
<!-- Created with Inkscape (http://www.inkscape.org/) -->

<svg
   width="8.81495mm"
   height="9.3794098mm"
   viewBox="0 0 8.81495 9.3794098"
   version="1.1"
   id="svg62982"
   inkscape:version="1.2.2 (732a01da63, 2022-12-09, custom)"
   sodipodi:docname="threeleaf.svg"
   xmlns:inkscape="http://www.inkscape.org/namespaces/inkscape"
   xmlns:sodipodi="http://sodipodi.sourceforge.net/DTD/sodipodi-0.dtd"
   xmlns:xlink="http://www.w3.org/1999/xlink"
   xmlns="http://www.w3.org/2000/svg"
   xmlns:svg="http://www.w3.org/2000/svg">
  <sodipodi:namedview
     id="namedview62984"
     pagecolor="#ffffff"
     bordercolor="#111111"
     borderopacity="1"
     inkscape:showpageshadow="0"
     inkscape:pageopacity="0"
     inkscape:pagecheckerboard="1"
     inkscape:deskcolor="#d1d1d1"
     inkscape:document-units="mm"
     showgrid="false"
     inkscape:zoom="0.5095679"
     inkscape:cx="-73.591763"
     inkscape:cy="-46.117505"
     inkscape:window-width="1536"
     inkscape:window-height="800"
     inkscape:window-x="0"
     inkscape:window-y="0"
     inkscape:window-maximized="1"
     inkscape:current-layer="layer1" />
  <defs
     id="defs62979">
    <linearGradient
       inkscape:collect="always"
       xlink:href="#linearGradient1067"
       id="linearGradient47960"
       gradientUnits="userSpaceOnUse"
       gradientTransform="matrix(-0.021066,0,0,-0.01609181,136.34886,129.29586)"
       x1="130.25296"
       y1="525.87402"
       x2="451.07901"
       y2="-3.9140973" />
    <linearGradient
       inkscape:collect="always"
       id="linearGradient1067">
      <stop
         style="stop-color:#046600;stop-opacity:1;"
         offset="0"
         id="stop1063" />
      <stop
         style="stop-color:#edc405;stop-opacity:1;"
         offset="1"
         id="stop1065" />
    </linearGradient>
  </defs>
  <g
     inkscape:label="Capa 1"
     inkscape:groupmode="layer"
     id="layer1"
     transform="translate(-125.7756,-119.89737)">
    <path
       style="fill:url(#linearGradient47960);fill-opacity:1;stroke-width:0.021042"
       d="m 133.86904,119.91204 v 0.0138 l -0.0491,0.19281 -0.049,0.19282 -0.0473,0.14147 -0.0473,0.14145 -0.0822,0.19907 -0.0822,0.19905 -0.0838,0.1665 -0.0838,0.1665 -0.12552,0.19212 -0.12554,0.19211 -0.13311,0.15372 -0.13312,0.15371 -0.14607,0.11929 -0.14606,0.11926 -0.27791,0.15919 -0.2779,0.15918 -0.21678,0.13672 -0.21679,0.13671 -0.37028,0.27707 -0.3703,0.27708 -0.26908,0.23909 -0.26906,0.23908 -0.22023,0.22343 -0.22024,0.22341 -0.20335,0.23635 -0.20333,0.23634 -0.19892,0.26563 -0.19892,0.26564 -0.21066,0.33206 -0.21066,0.33205 -0.15646,0.30344 -0.15645,0.30346 -0.10061,0.24505 -0.10063,0.24505 0.01,0.007 0.01,0.007 0.0559,-0.13291 0.0559,-0.1329 0.10762,-0.19311 0.10761,-0.1931 0.20073,-0.30345 0.20075,-0.30344 0.19667,-0.24827 0.19668,-0.24828 0.15835,-0.17471 0.15836,-0.17471 0.18016,-0.18391 0.18012,-0.1839 0.28052,-0.25747 0.2805,-0.25746 0.3955,-0.3109 0.39552,-0.31088 0.37316,-0.25119 0.37318,-0.25118 0.24303,-0.14596 0.24301,-0.14597 0.25762,-0.15453 0.2576,-0.15453 0.17598,-0.14892 0.17599,-0.14892 0.14195,-0.14712 0.14194,-0.14712 0.0722,-0.0873 0.0722,-0.0873 0.0169,-3e-5 0.0169,-3e-5 0.10007,0.12863 0.10006,0.12861 0.0966,0.17024 0.0966,0.17022 0.10351,0.24165 0.1035,0.24165 0.0517,0.18134 0.0517,0.18134 0.034,0.19309 0.0339,0.19311 v 0.3166 0.31661 l -0.0377,0.20629 -0.0376,0.20628 -0.0689,0.20355 -0.0688,0.20353 -0.0866,0.17301 -0.0866,0.17301 -0.12091,0.18451 -0.12094,0.1845 -0.15745,0.18356 -0.15745,0.18356 -0.18746,0.17616 -0.18747,0.17615 -0.28586,0.21254 -0.28586,0.21256 -0.23208,0.14067 -0.23209,0.14067 -0.29757,0.15424 -0.29759,0.15422 -0.22872,0.10113 -0.22872,0.10112 -0.27686,0.11172 -0.27686,0.1117 -0.35955,0.12272 -0.35954,0.12273 -0.43495,0.12761 -0.43495,0.12762 -0.27352,0.10409 -0.2735,0.10409 -0.24132,0.11726 -0.2413,0.11727 -0.26763,0.1544 -0.26761,0.15439 -0.18056,0.12021 -0.18057,0.1202 -0.0166,8e-5 -0.0166,9e-5 -0.1383,-0.17931 -0.1383,-0.17931 -0.18576,-0.29425 -0.18572,-0.29425 -0.1212,-0.24828 -0.12118,-0.24828 -0.0961,-0.26006 -0.0961,-0.26008 -0.0611,-0.22728 -0.0611,-0.22727 -0.0392,-0.2115 -0.0392,-0.21148 -0.0117,-0.47816 -0.0117,-0.47816 0.0494,-0.31264 0.0494,-0.31263 0.0605,-0.17695 0.0605,-0.17695 0.0863,-0.19086 0.0863,-0.19088 0.17496,-0.27585 0.17497,-0.27586 0.13913,-0.17471 0.13914,-0.17471 0.20509,-0.20887 0.20508,-0.20886 0.21936,-0.17534 0.21938,-0.17534 0.20887,-0.13543 0.20887,-0.13542 0.26698,-0.13782 0.26699,-0.13783 0.34269,-0.12806 0.34272,-0.12805 0.28051,-0.0729 0.28052,-0.0729 0.27793,-0.0476 0.27796,-0.0476 0.24806,-0.0274 0.24806,-0.0274 0.43336,-0.0117 0.43336,-0.0118 0.36899,0.0226 0.36897,0.0227 0.0335,-0.0338 0.0334,-0.0338 0.13101,-0.20231 0.13098,-0.20229 0.0718,-0.16552 0.0718,-0.16553 0.0497,-0.15632 0.0496,-0.15631 0.0193,-0.0798 0.0193,-0.0798 0.26482,-0.0693 0.26482,-0.0693 0.0933,-0.0303 0.0932,-0.0303 h 0.0211 0.0211 v 0.0138 z"
       id="path47454" />
  </g>
</svg>
