<?xml version="1.0" encoding="UTF-8" standalone="no"?>
<!-- Created with Inkscape (http://www.inkscape.org/) -->

<svg
   width="9.3789101mm"
   height="8.8150997mm"
   viewBox="0 0 9.3789101 8.8150997"
   version="1.1"
   id="svg53450"
   inkscape:version="1.2.2 (732a01da63, 2022-12-09, custom)"
   sodipodi:docname="thre.svg"
   xmlns:inkscape="http://www.inkscape.org/namespaces/inkscape"
   xmlns:sodipodi="http://sodipodi.sourceforge.net/DTD/sodipodi-0.dtd"
   xmlns:xlink="http://www.w3.org/1999/xlink"
   xmlns="http://www.w3.org/2000/svg"
   xmlns:svg="http://www.w3.org/2000/svg">
  <sodipodi:namedview
     id="namedview53452"
     pagecolor="#ffffff"
     bordercolor="#111111"
     borderopacity="1"
     inkscape:showpageshadow="0"
     inkscape:pageopacity="0"
     inkscape:pagecheckerboard="1"
     inkscape:deskcolor="#d1d1d1"
     inkscape:document-units="mm"
     showgrid="false"
     inkscape:zoom="0.72063785"
     inkscape:cx="140.84745"
     inkscape:cy="97.829999"
     inkscape:window-width="1536"
     inkscape:window-height="800"
     inkscape:window-x="0"
     inkscape:window-y="0"
     inkscape:window-maximized="1"
     inkscape:current-layer="layer1" />
  <defs
     id="defs53447">
    <linearGradient
       inkscape:collect="always"
       xlink:href="#linearGradient1093"
       id="linearGradient8921"
       gradientUnits="userSpaceOnUse"
       gradientTransform="matrix(0,-0.02106534,-0.01609129,0,96.129251,71.884545)"
       x1="130.25296"
       y1="525.87402"
       x2="451.07901"
       y2="-3.9140973" />
    <linearGradient
       inkscape:collect="always"
       id="linearGradient1093">
      <stop
         style="stop-color:#046600;stop-opacity:1;"
         offset="0"
         id="stop1089" />
      <stop
         style="stop-color:#ff0037;stop-opacity:1;"
         offset="1"
         id="stop1091" />
    </linearGradient>
  </defs>
  <g
     inkscape:label="Capa 1"
     inkscape:groupmode="layer"
     id="layer1"
     transform="translate(-86.731291,-61.312585)">
    <path
       style="fill:url(#linearGradient8921);fill-opacity:1;stroke-width:0.0210413"
       d="m 86.745741,69.404775 0.0138,-6e-5 0.19281,-0.049 0.19281,-0.049 0.14146,-0.0473 0.14145,-0.0473 0.19905,-0.0822 0.19905,-0.0822 0.16649,-0.0838 0.16649,-0.0838 0.19211,-0.12555 0.19211,-0.12551 0.15372,-0.13313 0.15371,-0.1331 0.11927,-0.14607 0.11927,-0.14607 0.15919,-0.27788 0.15918,-0.27791 0.1367,-0.21676 0.13671,-0.21678 0.27707,-0.37029 0.27707,-0.37028 0.23907,-0.26905 0.23906,-0.26906 0.22343,-0.22023 0.22341,-0.22023 0.23634,-0.20334 0.23633,-0.20332 0.26563,-0.19892 0.26564,-0.19892 0.33204,-0.21063 0.33205,-0.21067 0.30344,-0.15644 0.30342,-0.15645 0.24506,-0.10062 0.24504,-0.10062 0.007,0.01 0.007,0.01 -0.1329,0.0559 -0.13291,0.0559 -0.1931,0.10762 -0.19309,0.10761 -0.30344,0.20074 -0.30344,0.20075 -0.24826,0.19666 -0.24828,0.19667 -0.1747,0.15835 -0.1747,0.15836 -0.1839,0.18013 -0.1839,0.18012 -0.25746,0.2805 -0.25747,0.2805 -0.31087,0.3955 -0.31087,0.39549 -0.25118,0.37316 -0.25118,0.37316 -0.14596,0.24302 -0.14596,0.24302 -0.15452,0.25759 -0.15452,0.2576 -0.14892,0.17598 -0.14891,0.17599 -0.14713,0.14194 -0.14712,0.14195 -0.0873,0.0722 -0.0873,0.0722 v 0.017 0.017 l 0.12861,0.10007 0.12862,0.10006 0.17022,0.0966 0.17023,0.0966 0.24164,0.10351 0.24164,0.1035 0.18134,0.0517 0.18133,0.0517 0.19309,0.034 0.19309,0.034 0.3166,5.3e-4 0.3166,5.2e-4 0.20628,-0.0376 0.20628,-0.0376 0.20353,-0.0689 0.20353,-0.0689 0.173,-0.0866 0.17301,-0.0866 0.1845,-0.12091 0.1845,-0.12092 0.18356,-0.15744 0.18355,-0.15745 0.17615,-0.18745 0.17615,-0.18747 0.21255,-0.28585 0.21253,-0.28585 0.14067,-0.23208 0.14068,-0.23207 0.15421,-0.29758 0.15423,-0.29757 0.10111,-0.2287 0.10113,-0.22871 0.1117,-0.27686 0.1117,-0.27686 0.12272,-0.35953 0.12271,-0.35954 0.12762,-0.43492 0.12762,-0.43494 0.10408,-0.2735 0.1041,-0.2735 0.11725,-0.24132 0.11725,-0.24132 0.1544,-0.2676 0.15439,-0.26761 0.1202,-0.18056 0.1202,-0.18056 9e-5,-0.0167 8e-5,-0.0167 -0.17931,-0.1383 -0.1793,-0.1383 -0.29424,-0.18573 -0.29423,-0.18574 -0.24828,-0.12119 -0.24826,-0.12117 -0.26007,-0.0961 -0.26006,-0.0961 -0.22727,-0.0611 -0.22727,-0.0611 -0.21149,-0.0392 -0.21149,-0.0392 -0.47813,-0.0118 -0.47814,-0.0118 -0.31264,0.0494 -0.31263,0.0494 -0.17694,0.0606 -0.17694,0.0605 -0.19086,0.0863 -0.19086,0.0863 -0.27585,0.17496 -0.27585,0.17494 -0.1747,0.13914 -0.17471,0.13912 -0.20886,0.20509 -0.20885,0.20509 -0.17534,0.21935 -0.17533,0.21936 -0.13542,0.20887 -0.13542,0.20887 -0.13782,0.26697 -0.13783,0.26697 -0.12805,0.3427 -0.12804,0.34269 -0.0729,0.28051 -0.0729,0.28051 -0.0476,0.27793 -0.0476,0.27795 -0.0274,0.24805 -0.0274,0.24806 -0.0117,0.43334 -0.0117,0.43334 0.0226,0.36898 0.0226,0.36896 -0.0337,0.0334 -0.0338,0.0334 -0.20229,0.13099 -0.20229,0.13099 -0.16551,0.0718 -0.16552,0.0718 -0.15631,0.0497 -0.15631,0.0497 -0.0798,0.0193 -0.0798,0.0193 -0.0693,0.26484 -0.0693,0.26482 -0.0302,0.0932 -0.0303,0.0932 v 0.0211 0.0211 l 0.0138,-7e-5 z"
       id="path8131" />
  </g>
</svg>
